<?xml version="1.0" encoding="UTF-8"?>
<svg width="61px" height="65px" viewBox="0 0 61 65" version="1.1" xmlns="http://www.w3.org/2000/svg" xmlns:xlink="http://www.w3.org/1999/xlink">
    <!-- Generator: sketchtool 54.1 (76490) - https://sketchapp.com -->
    <title>0FD0EFE3-F23D-4ECB-9AA6-55B6B3D07466</title>
    <desc>Created with sketchtool.</desc>
    <g id="NLR-Candidate-Report-(Web)" stroke="none" stroke-width="1" fill="none" fill-rule="evenodd">
        <g id="Factor-Icons---Candidate-Facing" transform="translate(-319.000000, -515.000000)">
            <g id="Icons/Factors/Generosity-Dark-bg" transform="translate(306.000000, 505.000000)">
                <g id="Icons/Factors/Generosity" transform="translate(13.000000, 12.000000)">
                    <rect id="Rectangle" fill="#E9EFFF" x="4.61921848" y="23.9435611" width="51.735247" height="38.6780603"></rect>
                    <path d="M30.486842,62.6216214 L30.486842,35.4548886" id="Line" stroke="#8AA7FA" stroke-width="3"></path>
                    <rect id="Rectangle-Copy-3" fill="#E9EFFF" x="0" y="14.7344992" width="60.973684" height="15.6554054"></rect>
                    <path d="M60.973684,29.4689983 L0,29.4689983" id="Line-Copy" stroke="#8AA7FA" stroke-width="3"></path>
                    <g id="Group-2" transform="translate(12.933812, 0.000000)" stroke="#8AA7FA" stroke-width="3">
                        <path d="M17.5530302,14.4604761 C17.5530302,13.5888256 23.2714601,-5.86756988 33.3471899,1.77517539 C36.139751,3.89341735 36.4458577,10.5616496 27.9318955,14.4604761 C23.1611457,16.6451611 17.5530302,15.3321265 17.5530302,14.4604761 Z" id="Path-2"></path>
                        <path d="M0,14.4604761 C6.88143656e-17,13.5888256 5.71842989,-5.86756988 15.7941596,1.77517539 C18.5867208,3.89341735 18.8928274,10.5616496 10.3788653,14.4604761 C5.60811546,16.6451611 0,15.3321265 0,14.4604761 Z" id="Path-2-Copy" transform="translate(8.776515, 7.827703) scale(-1, 1) translate(-8.776515, -7.827703) "></path>
                    </g>
                </g>
            </g>
        </g>
    </g>
</svg>