<?xml version="1.0" encoding="utf-8"?>
<!-- Generator: Adobe Illustrator 16.0.0, SVG Export Plug-In . SVG Version: 6.00 Build 0)  -->
<!DOCTYPE svg PUBLIC "-//W3C//DTD SVG 1.1//EN" "http://www.w3.org/Graphics/SVG/1.1/DTD/svg11.dtd">
<svg version="1.1" id="Layer_1" xmlns="http://www.w3.org/2000/svg" xmlns:xlink="http://www.w3.org/1999/xlink" x="0px" y="0px"
	 width="1369px" height="854.48px" viewBox="0 0 1369 854.48" enable-background="new 0 0 1369 854.48" xml:space="preserve">
<style>
#star1 {
	animation-name: star1;
      animation-duration: 5000ms;
      animation-timing-function: cubic-bezier(0,-.49,-.76,1);
      animation-iteration-count: infinite;
            transform-origin: center;
		       }
           @keyframes star1 {
      from {
        transform: translateY(-500px);
      }
	  to { transform: translateY(1000px)}
    }

#star2 {
	animation-name: star2;
      animation-duration: 4000ms;
      animation-timing-function: cubic-bezier(0,-.49,-.76,1);
      animation-iteration-count: infinite;
	      transform-origin: center;
       }
           @keyframes star2 {
      from {
        transform: translateY(-3000px);
      }
	  to { transform: translateY(500px)}
    }

	#star3 {
	animation-name: star3;
      animation-duration: 4500ms;
      animation-timing-function: cubic-bezier(0,-.49,-.76,1);
      animation-iteration-count: infinite;
	      transform-origin: center;
       }
           @keyframes star3 {
      from {
        transform: translateY(-2000px);
      }
	  to { transform: translateY(500px)}
    }

	#shoot1 {
	animation-name: shoot1;
      animation-duration: 8000ms;
      animation-timing-function: cubic-bezier(0,-.49,-.76,1);
      animation-iteration-count: infinite;
	     transform-origin: center;
       }
           @keyframes shoot1 {
      100% {
        transform: translate(-3000px,2000px);
	  }
    }

		#shoot2 {
	animation-name: shoot2;
      animation-duration: 6000ms;
      animation-timing-function: cubic-bezier(0,-.49,-.76,1);
      animation-iteration-count: infinite;
	     transform-origin: center;
       }
           @keyframes shoot2 {
      100% {
        transform: translate(-3000px,2000px);
     
    }
	}
		#shoot3 {
	animation-name: shoot3;
      animation-duration: 10000ms;
      animation-timing-function: cubic-bezier(0,-.49,-.76,1);
      animation-iteration-count: infinite;
	     transform-origin: center;
       }
           @keyframes shoot3 {
      100% {
        transform: translate(-3000px,2000px);
     }
    }	
	
	#shoot4 {
	animation-name: shoot4;
      animation-duration: 12000ms;
      animation-timing-function: cubic-bezier(0,-.49,-.76,1);
      animation-iteration-count: infinite;
	     transform-origin: center;
       }
           @keyframes shoot4 {
      100% {
        transform: translate(-3000px,2000px);
     
    }





</style>


<linearGradient id="SVGID_1_" gradientUnits="userSpaceOnUse" x1="2949.1152" y1="259.1348" x2="3493.0962" y2="-962.6672" gradientTransform="matrix(-1 0 0 1 3905.6055 779.0068)">
	<stop  offset="0.012" style="stop-color:#00095E"/>
	<stop  offset="0.2134" style="stop-color:#00095E"/>
	<stop  offset="0.5274" style="stop-color:#00042C"/>
	<stop  offset="1" style="stop-color:#000000"/>

</linearGradient>
<rect fill="url(#SVGID_1_)" width="1369" height="854.48"/>
<path fill-rule="evenodd" clip-rule="evenodd" fill="#29324E" d="M1369,504.503v356.115H0V516.213
	c23.22-13.247,62.904-30.515,107.022-26.613c69.763,6.268,73.563,95.92,73.563,95.92s39.049-31.225,65.124-15.611
	c26.064,15.611,22.375,55.351,22.375,55.351s42.741-38.676,98.573-8.398c55.937,30.276,38.209,86.573,38.209,86.573
	s45.594-9.342,55.83,19.869c10.241,29.213-4.011,36.665-4.011,36.665s46.861-25.192,92.458,2.954
	c45.592,28.153,50.239,67.772,50.239,67.772l227.762,29.924c0,0-12.666-116.501,34.722-150.916
	c47.498-34.415,71.664-9.343,71.664-9.343s2.851-25.072,21.426-22.945c18.682,2.011,21.426,10.409,21.426,10.409
	s3.694-87.641,77.257-93.909c73.565-6.268,94.039,33.352,94.039,33.352s-4.642-39.025,24.171-54.163
	c28.918-15.144,51.188,7.806,51.188,7.806s14.883-72.031,67.969-82.437C1319.08,492.91,1348,498.234,1369,504.503"/>
<rect y="802.664" fill-rule="evenodd" clip-rule="evenodd" fill="#231915" width="1369" height="57.954"/>
<path fill-rule="evenodd" clip-rule="evenodd" fill="#231915" d="M401.277,777.472c0.842-3.431,1.161-6.861,1.161-10.172v-0.591
	v-0.116v-0.237v-0.119v-0.12l-0.107-0.354v-0.12v-0.351v-0.12v-0.119v-0.117v-0.12v-0.116v-0.474v-0.12h-0.104v-0.117v-0.116v-0.117
	v-0.477v-0.116v-0.12c-0.422-3.901-1.372-7.568-2.639-11.116c-0.104-0.356-0.211-0.594-0.315-0.827v-0.12l-0.107-0.116v-0.12
	l-0.211-0.474v-0.116l-0.104-0.12v-0.12v-0.117h-0.107v-0.119v-0.114h-0.107v-0.12v-0.116l-0.102-0.237h-0.107v-0.119v-0.117
	c-1.476-3.431-3.377-6.625-5.385-9.699l-0.102-0.119l-0.107-0.237h-0.107v-0.12l-0.107-0.113v-0.12h-0.102v-0.116h-0.107v-0.12
	l-0.107-0.117l-0.104-0.12v-0.116h-0.107l-0.104-0.24l-0.106-0.116v-0.12h-0.102v-0.117h-0.107c-0.107-0.12-0.214-0.354-0.315-0.47
	c-2.85-3.904-5.912-7.336-9.185-10.412v-0.117h-0.107v-0.12h-0.104v-0.116h-0.107l-0.102-0.117l-0.107-0.117h-0.107v-0.119h-0.107
	v-0.117h-0.102v-0.12h-0.107l-0.107-0.116l-0.104-0.12h-0.107v-0.12v0.12h-0.104l-0.422,0.474h-0.107v0.119
	c-3.27,3.311-6.121,6.976-8.444,11l-0.102,0.116l-0.107,0.233l-0.107,0.12v0.117h-0.107v0.12v0.116h-0.102v0.12h-0.107v0.12
	l-0.211,0.354v0.12h-0.107v0.116l-0.104,0.12v0.113h-0.107c-2.214,4.024-3.904,8.282-5.275,12.54v0.116h-0.107v0.12l-0.104,0.474
	v0.117h-0.107v0.119v0.117v0.12h-0.102l-0.107,0.707l-0.107,0.12v0.116v0.12l-0.107,0.117l-0.107,0.593v0.12h-0.102v0.117
	c-1.059,4.257-1.69,8.515-1.901,12.536v0.12v0.113v0.12v0.116v0.594v0.119v0.117v0.12v0.117v0.12v0.354v0.116v0.12v0.117v0.119
	v0.117v0.356v0.12v0.116v0.117v0.117c0.211,6.505,1.69,12.302,4.751,16.677c3.481,5.205,8.546,7.926,13.72,8.162l0.318,12.183
	l2.532-0.12l-0.318-12.063C391.357,794.503,398.85,788.471,401.277,777.472"/>
<path fill-rule="evenodd" clip-rule="evenodd" fill="#231915" d="M439.481,721.059c0,0,7.182,7.922,6.861,15.254
	c-0.107,4.141-3.163,6.625-7.177,6.505c-3.481,0-7.176-1.894-7.07-6.742C432.305,726.38,439.481,721.059,439.481,721.059
	 M441.7,789.771l-0.107,17.15h-4.011l0.107-16.797c-3.166-0.474-6.123-2.364-6.016-6.741c0.211-9.576,7.385-15.021,7.385-15.021
	s7.177,8.045,6.864,15.257C445.815,786.694,444.125,788.944,441.7,789.771 M459.219,768.483c0,0,7.177,8.042,6.861,15.257
	c-0.107,4.141-3.166,6.741-7.069,6.621c-3.484-0.116-7.182-2.01-7.075-6.857C452.043,773.922,459.219,768.483,459.219,768.483
	 M418.903,768.246c0,0,7.069,8.042,6.858,15.258c-0.211,4.141-3.163,6.621-7.177,6.621c-3.484-0.117-7.174-2.011-7.072-6.858
	C411.724,773.57,418.903,768.246,418.903,768.246 M429.139,744.591c0,0,7.177,7.925,6.861,15.257
	c-0.104,4.141-3.166,6.625-7.07,6.505c-3.588,0-7.179-1.894-7.179-6.738C421.962,749.915,429.139,744.591,429.139,744.591
	 M449.826,744.711c0,0,7.072,8.042,6.861,15.257c-0.211,4.141-3.168,6.622-7.179,6.622c-3.481-0.117-7.176-2.011-7.069-6.859
	C442.649,750.035,449.826,744.711,449.826,744.711"/>
<path fill-rule="evenodd" clip-rule="evenodd" fill="#231915" d="M333.729,791.665c8.024,0.12,19.313,0,19.313-1.066
	c0-0.237-0.842-3.431-2.002-8.276v-0.119h-0.107v-0.117v-0.119v-0.117v-0.12h-0.104v-0.12v-0.116v-0.12h-0.107v-0.117v-0.119v-0.117
	l-0.104-0.12v-0.351l-0.107-0.239v-0.117v-0.12h-0.104v-0.116v-0.12v-0.117l-0.107-0.119v-0.117v-0.12v-0.113h-0.107v-0.12v-0.12
	v-0.116l-0.102-0.12v-0.117v-0.12v-0.116l-0.107-0.12c-2.113-8.278-5.067-19.632-7.917-30.514v-0.12v-0.114h-0.104v-0.236v-0.12
	h-0.107v-0.116v-0.12v-0.12l-0.102-0.117v-0.119v-0.117v-0.119h-0.107v-0.117v-0.12v-0.114l-0.107-0.119v-0.117v-0.12v-0.12h-0.107
	v-0.116v-0.12v-0.117h-0.107v-0.119v-0.117v-0.119l-0.102-0.117v-0.12v-0.114l-0.107-0.119v-0.12v-0.117V744
	c-0.738-2.483-1.372-4.967-2.005-7.448l-0.107-0.12v-0.116l-0.208-0.714l-0.214-0.707v-0.116v-0.12l-0.208-0.594v-0.116
	l-0.211-0.707v-0.12v-0.12h-0.107v-0.116v-0.12v-0.117h-0.104c-0.631-2.721-1.372-5.204-2.005-7.451v-0.117v-0.12h-0.107v-0.116
	v-0.12v-0.117h-0.106v-0.119v-0.12v-0.117h-0.102v-0.12v-0.116v-0.117l-0.107-0.116v-0.12v-0.117l-0.104-0.12v-0.116v-0.12v-0.12
	h-0.107v-0.116v-0.12v-0.117h-0.104v-0.12v-0.116v-0.12H335.1v-0.113v-0.12v-0.117h-0.104v-0.12v-0.119v-0.117h-0.104v-0.12v-0.116
	v-0.12h-0.107v-0.117c-1.476-5.201-2.535-8.515-2.85-8.752c-1.583-1.417-2.11-2.011-2.639-2.011c-0.527,0-1.054,0.711-2.639,2.131
	c-0.315,0.351-1.161,3.781-2.321,8.985v0.12h-0.104v0.117v0.239v0.117l-0.107,0.354l-0.104,0.116v0.12v0.117l-0.107,0.477v0.116
	l-0.104,0.474v0.117h-0.107v0.116v0.237l-0.104,0.239l-0.107,0.474v0.117v0.12v0.116h-0.107v0.117v0.116
	c-0.524,2.25-1.053,4.852-1.583,7.455v0.12l-0.102,0.116v0.117v0.117v0.119l-0.107,0.117v0.12v0.116v0.12l-0.107,0.117v0.12v0.119
	v0.117v0.12h-0.104v0.116v0.117v0.117l-0.107,0.119v0.117v0.12v0.116v0.12h-0.104v0.12v0.117v0.119v0.117l-0.107,0.12v0.116v0.12
	v0.114l-0.104,0.119v0.117v0.12v0.12v0.116c-0.527,2.367-1.056,4.968-1.581,7.569h-0.107v0.119v0.117v0.119v0.117l-0.107,0.12v0.116
	v0.12v0.12v0.117h-0.107v0.119v0.114v0.12v0.117l-0.107,0.119v0.117v0.119v0.117l-0.102,0.12v0.12v0.116v0.12v0.117h-0.107v0.119
	v0.114v0.12v0.116h-0.104v0.12v0.12v0.116v0.12l-0.107,0.117v0.12v0.116v0.12l-1.583,7.568l-0.211,1.301l-0.422,1.773l-0.208,0.943
	c-0.53,2.607-0.952,5.088-1.481,7.575l-0.107,0.351l-0.313,1.657l-0.318,1.653l-0.102,0.357c-0.529,2.72-0.952,5.204-1.481,7.568
	v0.119v0.117v0.12l-0.107,0.116v0.12v0.117v0.12v0.119h-0.102v0.117v0.119v0.114v0.12v0.117h-0.107v0.119v0.117v0.12v0.116
	l-0.107,0.12v0.12v0.117v0.119v0.117l-0.107,0.119v0.114v0.12v0.117v0.119h-0.102v0.12v0.117v0.12v0.116l-0.107,0.12v0.117v0.119
	c-0.952,4.968-1.583,8.162-1.479,8.513c0,1.066,11.188,0.356,19.209-0.237l0.422,13.604l4.433-0.12L333.729,791.665z"/>
<polygon fill-rule="evenodd" clip-rule="evenodd" fill="#231915" points="0,643.59 56.466,643.59 73.669,682.143 62.482,682.143 
	62.482,721.766 98.365,721.766 98.365,754.646 130.98,754.646 130.98,685.811 176.997,685.811 176.997,722.832 200.743,722.832 
	200.743,702.961 189.136,702.961 220.062,668.306 247.289,698.822 237.051,698.822 237.051,739.506 261.749,739.506 
	261.749,759.377 286.34,759.377 299.851,776.525 291.3,779.126 291.3,802.661 0,802.661 "/>
<rect x="8.444" y="684.393" fill-rule="evenodd" clip-rule="evenodd" fill="#2D3B62" width="9.818" height="21.643"/>
<rect x="26.492" y="684.393" fill-rule="evenodd" clip-rule="evenodd" fill="#2D3B62" width="9.813" height="21.643"/>
<rect x="14.145" y="732.881" fill-rule="evenodd" clip-rule="evenodd" fill="#2D3B62" width="9.813" height="12.656"/>
<rect x="27.867" y="732.881" fill-rule="evenodd" clip-rule="evenodd" fill="#2D3B62" width="9.815" height="12.656"/>
<rect x="41.268" y="732.881" fill-rule="evenodd" clip-rule="evenodd" fill="#2D3B62" width="9.818" height="12.656"/>
<rect x="55.306" y="732.881" fill-rule="evenodd" clip-rule="evenodd" fill="#2D3B62" width="9.818" height="12.656"/>
<rect x="92.563" y="767.656" fill-rule="evenodd" clip-rule="evenodd" fill="#2D3B62" width="6.016" height="13.246"/>
<rect x="101.215" y="767.656" fill-rule="evenodd" clip-rule="evenodd" fill="#2D3B62" width="6.017" height="13.246"/>
<rect x="138.897" y="696.453" fill-rule="evenodd" clip-rule="evenodd" fill="#2D3B62" width="6.013" height="10.292"/>
<rect x="148.291" y="696.453" fill-rule="evenodd" clip-rule="evenodd" fill="#2D3B62" width="6.013" height="10.292"/>
<rect x="138.897" y="712.187" fill-rule="evenodd" clip-rule="evenodd" fill="#2D3B62" width="6.013" height="10.409"/>
<rect x="148.291" y="712.187" fill-rule="evenodd" clip-rule="evenodd" fill="#2D3B62" width="6.013" height="10.409"/>
<rect x="207.393" y="704.024" fill-rule="evenodd" clip-rule="evenodd" fill="#2D3B62" width="6.861" height="8.872"/>
<rect x="217.313" y="704.024" fill-rule="evenodd" clip-rule="evenodd" fill="#2D3B62" width="6.968" height="8.872"/>
<rect x="173.516" y="752.753" fill-rule="evenodd" clip-rule="evenodd" fill="#2D3B62" width="7.176" height="9.226"/>
<rect x="188.184" y="752.753" fill-rule="evenodd" clip-rule="evenodd" fill="#2D3B62" width="7.072" height="9.226"/>
<rect x="202.54" y="752.753" fill-rule="evenodd" clip-rule="evenodd" fill="#2D3B62" width="7.072" height="9.226"/>
<rect x="270.934" y="779.953" fill-rule="evenodd" clip-rule="evenodd" fill="#2D3B62" width="4.538" height="9.936"/>
<rect x="277.896" y="779.953" fill-rule="evenodd" clip-rule="evenodd" fill="#2D3B62" width="4.433" height="9.936"/>
<path fill-rule="evenodd" clip-rule="evenodd" fill="#231915" d="M513.046,715.971c0.741-3.548,1.057-6.861,1.057-10.17v-0.119
	v-0.474v-0.117v-0.12v-0.116v-0.12v-0.119v-0.117v-0.234v-0.119v-0.117v-0.236v-0.12v-0.12h-0.107v-0.117v-0.119v-0.117v-0.471
	v-0.119v-0.117v-0.12v-0.12l-0.107-0.473v-0.117v-0.119v-0.117c-0.419-3.784-1.262-7.568-2.636-11.119
	c-0.107-0.234-0.107-0.471-0.208-0.827h-0.107v-0.117v-0.12h-0.107v-0.116l-0.107-0.356l-0.104-0.117v-0.117l-0.104-0.119v-0.117
	v-0.119h-0.107v-0.117v-0.12h-0.104v-0.117l-0.107-0.236v-0.12l-0.104-0.119c-1.476-3.428-3.272-6.739-5.382-9.696v-0.12
	l-0.107-0.117l-0.104-0.116v-0.12h-0.107v-0.117l-0.102-0.119l-0.106-0.117v-0.12h-0.107v-0.116h-0.107v-0.12h-0.107v-0.117
	l-0.208-0.239v-0.117h-0.104v-0.117l-0.107-0.116c-0.104-0.237-0.211-0.356-0.316-0.474l-0.107-0.12
	c-2.743-3.784-5.912-7.212-9.078-10.405h-0.107l-0.102-0.12v-0.117h-0.107h-0.104v-0.12h-0.107l-0.104-0.116v-0.12h-0.107v-0.117
	h-0.102v-0.119h-0.107l-0.107-0.117l-0.107-0.12l-0.107-0.12h-0.102v0.12h-0.107l-0.423,0.356v0.117h-0.104
	c-3.168,3.311-6.019,7.096-8.444,11.119l-0.211,0.354l-0.107,0.12v0.116l-0.102,0.117v0.117h-0.107v0.119l-0.321,0.474v0.12h-0.102
	v0.117v0.119h-0.107v0.117c-2.214,4.021-4.011,8.162-5.385,12.42v0.116v0.12l-0.208,0.471v0.119v0.117v0.12h-0.104v0.116v0.12
	l-0.211,0.71v0.117h-0.107v0.117v0.119v0.117l-0.211,0.477v0.117v0.119v0.117h-0.104c-1.057,4.258-1.69,8.396-1.797,12.42v0.116
	v0.12v0.117h-0.102v0.119v0.591v0.116v0.12v0.117v0.12v0.116v0.12v0.236v0.12v0.114v0.119v0.117v0.12v0.116v0.357v0.119v0.117v0.12
	v0.116c0.208,6.505,1.791,12.3,4.749,16.558c3.166,4.611,7.385,7.335,11.925,8.042v77.705h6.543v-77.825
	C504.391,731.818,510.723,725.906,513.046,715.971"/>
<path fill-rule="evenodd" clip-rule="evenodd" fill="#231915" d="M505.447,806.922c0,0-4.011-11.235,2.532-14.43
	c6.546-3.074,10.238,1.894,10.238,1.894s-1.583-14.667,8.34-15.377c10.027-0.827,10.973,3.667,10.973,3.667
	s2.535-13.129,11.612-12.063c9.078,1.063,9.5,10.643,9.5,10.643s7.703-1.653,10.658,3.194c2.85,4.848,1.476,8.632,1.476,8.632
	s8.235-1.42,10.661,2.725c2.43,4.137,0.529,11.235,0.529,11.235L505.447,806.922z"/>
<path fill-rule="evenodd" clip-rule="evenodd" fill="#231915" d="M288.661,712.776c0.845-3.428,1.161-6.858,1.161-10.169v-0.594
	v-0.117v-0.236h-0.107v-0.119v-0.117v-0.354v-0.12v-0.236v-0.117v-0.12v-0.117v-0.119v-0.12l-0.102-0.47v-0.117v-0.12v-0.116v-0.12
	v-0.594v-0.116l-0.107-0.117c-0.315-3.904-1.267-7.572-2.535-11.116c-0.102-0.356-0.208-0.593-0.315-0.83v-0.12l-0.107-0.116v-0.12
	l-0.208-0.471v-0.117l-0.107-0.119v-0.12h-0.104v-0.116v-0.12h-0.107v-0.117v-0.12l-0.211-0.354v-0.119l-0.102-0.12
	c-1.481-3.425-3.272-6.619-5.281-9.693h-0.104v-0.12l-0.107-0.236h-0.102v-0.119h-0.107v-0.117h-0.107v-0.12l-0.107-0.116v-0.12
	h-0.107v-0.117h-0.102v-0.12l-0.107-0.117l-0.104-0.236h-0.107v-0.117h-0.104v-0.119l-0.107-0.117
	c-0.104-0.119-0.211-0.236-0.315-0.473c-2.85-3.785-6.016-7.332-9.182-10.41v-0.116h-0.107l-0.104-0.12h-0.107v-0.117h-0.104v-0.119
	l-0.107-0.117h-0.102v-0.119h-0.107v-0.117h-0.107v-0.12h-0.107l-0.107-0.117h-0.102l-0.107-0.119v-0.117v0.117h-0.104l-0.422,0.474
	h-0.107v0.119c-3.27,3.311-6.121,6.979-8.444,11l-0.104,0.116l-0.107,0.237l-0.102,0.119v0.117h-0.107v0.119l-0.107,0.117v0.12
	h-0.107v0.116l-0.208,0.354v0.12h-0.107v0.116l-0.104,0.12v0.117h-0.107c-2.216,4.021-4.011,8.281-5.275,12.536v0.12h-0.107v0.119
	l-0.104,0.474l-0.107,0.114v0.119v0.117l-0.104,0.119l-0.211,0.711v0.119v0.117v0.12h-0.107v0.114v0.119l-0.104,0.474l-0.107,0.12
	v0.116v0.12c-1.056,4.138-1.69,8.398-1.898,12.416v0.12v0.117v0.12v0.117v0.59v0.119v0.117v0.12v0.116v0.12v0.356v0.117v0.12v0.116
	v0.117v0.117v0.477v0.116v0.12v0.117c0.208,6.505,1.69,12.299,4.642,16.674c3.168,4.614,7.495,7.218,12.035,8.045v77.702h6.543
	v-77.821C280.009,728.744,286.444,722.832,288.661,712.776"/>
<path fill-rule="evenodd" clip-rule="evenodd" fill="#231915" d="M90.769,711.359c8.024,0.119,19.313,0,19.313-1.066
	c0-0.354-0.842-3.428-2.005-8.396v-0.116h-0.104v-0.12v-0.117v-0.119h-0.104v-0.12v-0.116v-0.12l-0.107-0.117v-0.12v-0.116v-0.12
	l-0.104-0.114v-0.236l-0.107-0.239v-0.117v-0.12l-0.104-0.116v-0.12v-0.117v-0.12h-0.107v-0.116v-0.12v-0.114l-0.107-0.12v-0.119
	v-0.117v-0.119h-0.102v-0.117v-0.12v-0.116l-0.107-0.12c-2.112-8.279-4.96-19.632-7.917-30.515v-0.116v-0.117l-0.104-0.356v-0.117
	h-0.107v-0.119v-0.117v-0.12h-0.102v-0.12v-0.116v-0.12l-0.107-0.117v-0.119v-0.114v-0.12h-0.107v-0.116v-0.12v-0.12h-0.107v-0.116
	v-0.12v-0.117l-0.107-0.12v-0.116v-0.12v-0.117h-0.102v-0.119v-0.114l-0.107-0.12v-0.119v-0.117v-0.12
	c-0.738-2.483-1.375-4.968-2.005-7.448v-0.12h-0.107v-0.116l-0.208-0.714l-0.107-0.707h-0.107v-0.116v-0.12l-0.208-0.71v-0.12
	l-0.211-0.587v-0.12v-0.12l-0.107-0.117v-0.119v-0.117c-0.735-2.721-1.476-5.205-2.11-7.451v-0.117v-0.12h-0.107v-0.116v-0.12V644.3
	l-0.107-0.12v-0.119v-0.117v-0.12h-0.102v-0.116v-0.117v-0.117h-0.107v-0.119v-0.117l-0.104-0.12V643v-0.12v-0.12h-0.107v-0.117
	v-0.119v-0.117h-0.104v-0.12v-0.116v-0.117l-0.107-0.117v-0.119v-0.117l-0.104-0.12v-0.12v-0.116l-0.107-0.12v-0.117v-0.119
	l-0.104-0.117c-1.476-5.201-2.428-8.516-2.851-8.752c-1.583-1.418-2.109-2.011-2.639-2.011c-0.527,0-1.054,0.71-2.639,2.13
	c-0.315,0.354-1.161,3.665-2.321,8.986v0.12l-0.104,0.116v0.24v0.117l-0.107,0.354v0.116H81.06v0.12v0.117L80.953,643v0.116
	l-0.104,0.474v0.117l-0.107,0.116v0.237l-0.107,0.119v0.12l-0.104,0.354v0.12v0.117v0.119v0.117h-0.107v0.119v0.114
	c-0.524,2.25-1.053,4.851-1.583,7.455v0.12l-0.102,0.116v0.233v0.12v0.117h-0.107v0.12v0.116v0.12v0.117h-0.107v0.119v0.12v0.117
	v0.12l-0.104,0.116v0.12v0.113v0.12h-0.107v0.117v0.12v0.116v0.12l-0.104,0.12v0.116v0.12v0.117v0.12h-0.107v0.116v0.12v0.113v0.12
	h-0.104v0.12v0.117v0.119v0.117c-0.526,2.367-1.056,4.968-1.583,7.568l-0.104,0.12v0.116v0.12v0.117l-0.107,0.12v0.116v0.12v0.12
	v0.116l-0.107,0.12v0.114v0.119v0.117l-0.107,0.12v0.116v0.12v0.12v0.117h-0.102v0.119v0.117v0.12v0.116l-0.107,0.12v0.117v0.116
	v0.117l-0.107,0.12v0.12v0.116v0.12v0.117H75.57v0.119v0.117v0.12l-1.583,7.568l-0.211,1.3l-0.422,1.774l-0.209,0.943
	c-0.425,2.607-0.952,5.088-1.481,7.575v0.233l-0.42,1.773l-0.318,1.654l-0.104,0.356c-0.527,2.721-0.949,5.205-1.479,7.568v0.12
	v0.117v0.12v0.116h-0.107v0.12v0.117v0.119v0.12l-0.102,0.116v0.12v0.114v0.12v0.116l-0.107,0.12v0.117v0.12v0.116v0.12H68.92v0.119
	v0.117v0.12v0.116l-0.107,0.12v0.114v0.119v0.117v0.12l-0.102,0.12v0.117v0.119v0.117v0.119h-0.107v0.117v0.12
	c-0.952,4.968-1.479,8.161-1.479,8.513c0,1.066,11.188,0.356,19.316-0.234l0.315,13.601l4.431-0.117L90.769,711.359z"/>
<polygon fill-rule="evenodd" clip-rule="evenodd" fill="#231915" points="1369,675.051 1325.203,675.051 1325.203,731.938 
	1296.807,731.938 1296.807,697.52 1264.304,697.52 1254.485,716.797 1263.774,716.797 1263.774,741.283 1233.592,741.283 
	1233.592,779.365 1217.758,779.365 1217.758,755.947 1198.126,755.947 1198.126,712.66 1162.241,712.66 1162.241,768.483 
	1141.874,768.483 1141.874,742.82 1124.142,742.82 1124.142,717.271 1136.703,717.271 1106.516,683.446 1075.804,713.724 
	1090.157,713.724 1090.157,729.811 1063.665,729.811 1063.665,749.088 1025.988,749.088 1025.988,780.43 1005.935,780.43 
	1005.935,722.479 963.61,722.479 941.235,747.551 958.969,747.074 958.969,765.763 932.369,765.763 932.369,719.875 
	895.639,719.875 895.639,755.947 871.893,755.947 853.106,776.998 865.561,776.998 865.561,811.533 1369,811.533 "/>
<rect x="1250.795" y="752.279" fill-rule="evenodd" clip-rule="evenodd" fill="#2D3B62" width="9.706" height="12.656"/>
<rect x="1264.512" y="752.279" fill-rule="evenodd" clip-rule="evenodd" fill="#2D3B62" width="9.712" height="12.656"/>
<rect x="1277.916" y="752.279" fill-rule="evenodd" clip-rule="evenodd" fill="#2D3B62" width="9.709" height="12.656"/>
<rect x="1291.953" y="752.279" fill-rule="evenodd" clip-rule="evenodd" fill="#2D3B62" width="9.816" height="12.656"/>
<rect x="1332.906" y="690.185" fill-rule="evenodd" clip-rule="evenodd" fill="#2D3B62" width="9.815" height="12.656"/>
<rect x="1346.943" y="690.185" fill-rule="evenodd" clip-rule="evenodd" fill="#2D3B62" width="9.815" height="12.656"/>
<rect x="1332.906" y="708.989" fill-rule="evenodd" clip-rule="evenodd" fill="#2D3B62" width="9.815" height="12.656"/>
<rect x="1346.943" y="708.989" fill-rule="evenodd" clip-rule="evenodd" fill="#2D3B62" width="9.815" height="12.656"/>
<rect x="1269.159" y="712.423" fill-rule="evenodd" clip-rule="evenodd" fill="#2D3B62" width="4.853" height="12.536"/>
<rect x="1276.229" y="712.423" fill-rule="evenodd" clip-rule="evenodd" fill="#2D3B62" width="4.855" height="12.536"/>
<rect x="1166.57" y="720.229" fill-rule="evenodd" clip-rule="evenodd" fill="#2D3B62" width="6.646" height="8.635"/>
<rect x="1175.118" y="720.229" fill-rule="evenodd" clip-rule="evenodd" fill="#2D3B62" width="6.754" height="8.635"/>
<rect x="1166.57" y="731.344" fill-rule="evenodd" clip-rule="evenodd" fill="#2D3B62" width="6.646" height="8.636"/>
<rect x="1175.118" y="731.344" fill-rule="evenodd" clip-rule="evenodd" fill="#2D3B62" width="6.754" height="8.636"/>
<rect x="1097.227" y="717.747" fill-rule="evenodd" clip-rule="evenodd" fill="#2D3B62" width="4.118" height="9.106"/>
<rect x="1103.772" y="717.747" fill-rule="evenodd" clip-rule="evenodd" fill="#2D3B62" width="4.219" height="9.106"/>
<rect x="1070.525" y="735.719" fill-rule="evenodd" clip-rule="evenodd" fill="#2D3B62" width="4.223" height="5.324"/>
<rect x="1077.173" y="735.719" fill-rule="evenodd" clip-rule="evenodd" fill="#2D3B62" width="4.225" height="5.324"/>
<rect x="1083.719" y="735.719" fill-rule="evenodd" clip-rule="evenodd" fill="#2D3B62" width="4.115" height="5.324"/>
<rect x="1047.413" y="762.805" fill-rule="evenodd" clip-rule="evenodd" fill="#2D3B62" width="7.915" height="10.293"/>
<rect x="1058.494" y="762.805" fill-rule="evenodd" clip-rule="evenodd" fill="#2D3B62" width="7.914" height="10.293"/>
<rect x="1069.365" y="762.805" fill-rule="evenodd" clip-rule="evenodd" fill="#2D3B62" width="7.915" height="10.293"/>
<rect x="1080.764" y="762.805" fill-rule="evenodd" clip-rule="evenodd" fill="#2D3B62" width="7.811" height="10.293"/>
<rect x="965.3" y="750.152" fill-rule="evenodd" clip-rule="evenodd" fill="#2D3B62" width="5.487" height="11.115"/>
<rect x="972.899" y="750.152" fill-rule="evenodd" clip-rule="evenodd" fill="#2D3B62" width="5.486" height="11.115"/>
<rect x="980.813" y="750.152" fill-rule="evenodd" clip-rule="evenodd" fill="#2D3B62" width="5.594" height="11.115"/>
<rect x="901.973" y="729.453" fill-rule="evenodd" clip-rule="evenodd" fill="#2D3B62" width="5.594" height="11.117"/>
<rect x="909.994" y="729.453" fill-rule="evenodd" clip-rule="evenodd" fill="#2D3B62" width="5.594" height="11.117"/>
<rect x="901.973" y="744.24" fill-rule="evenodd" clip-rule="evenodd" fill="#2D3B62" width="5.594" height="11.116"/>
<rect x="909.994" y="744.24" fill-rule="evenodd" clip-rule="evenodd" fill="#2D3B62" width="5.594" height="11.116"/>
<rect x="901.973" y="761.981" fill-rule="evenodd" clip-rule="evenodd" fill="#2D3B62" width="5.594" height="11.116"/>
<rect x="909.994" y="761.981" fill-rule="evenodd" clip-rule="evenodd" fill="#2D3B62" width="5.594" height="11.116"/>
<rect x="871.577" y="777.709" fill-rule="evenodd" clip-rule="evenodd" fill="#2D3B62" width="4.225" height="5.438"/>
<rect x="878.117" y="777.709" fill-rule="evenodd" clip-rule="evenodd" fill="#2D3B62" width="4.225" height="5.438"/>
<path fill-rule="evenodd" clip-rule="evenodd" fill="#231915" d="M788.196,807.393c0,0-3.059-8.633,1.901-11.113
	c5.066-2.367,8.019,1.418,8.019,1.418s-1.262-11.236,6.441-11.83c7.703-0.707,8.444,2.841,8.444,2.841s2.002-10.173,9.077-9.346
	c6.963,0.83,7.283,8.282,7.283,8.282s6.014-1.301,8.23,2.363c2.217,3.785,1.16,6.742,1.16,6.742s6.332-1.184,8.23,2.13
	c1.903,3.191,0.422,8.633,0.422,8.633L788.196,807.393z"/>
<path fill-rule="evenodd" clip-rule="evenodd" fill="#231915" d="M795.902,739.626c0.845-3.548,1.16-6.861,1.16-10.173v-0.119
	v-0.474v-0.114v-0.119v-0.117v-0.119v-0.12v-0.117v-0.237v-0.119v-0.117l-0.106-0.236v-0.12v-0.114v-0.119v-0.12v-0.116v-0.474
	v-0.12v-0.117v-0.119l-0.102-0.117v-0.474v-0.116v-0.12v-0.117c-0.423-3.787-1.375-7.568-2.642-11.119
	c-0.102-0.236-0.209-0.474-0.316-0.83v-0.114v-0.119h-0.106v-0.117l-0.107-0.356h-0.102v-0.116v-0.12l-0.106-0.12v-0.117
	l-0.104-0.119v-0.117l-0.106-0.12v-0.114l-0.104-0.236v-0.119h-0.107v-0.117c-1.476-3.431-3.272-6.625-5.382-9.699v-0.119h-0.104
	l-0.107-0.237l-0.104-0.12v-0.116h-0.107v-0.12h-0.104v-0.117v-0.117h-0.106v-0.116h-0.107v-0.12h-0.102v-0.117l-0.214-0.239v-0.116
	h-0.106v-0.12h-0.102v-0.117h-0.107c-0.104-0.236-0.211-0.356-0.315-0.474c-2.746-3.9-5.912-7.332-9.08-10.525h-0.102l-0.107-0.12
	h-0.106v-0.116h-0.107v-0.12h-0.102l-0.106-0.117v-0.12h-0.104v-0.113h-0.107h-0.104v-0.12h-0.106l-0.106-0.117v-0.12l-0.103-0.119
	h-0.106v0.119h-0.107l-0.419,0.357v0.113h-0.107c-3.272,3.314-6.017,7.099-8.444,11.119l-0.211,0.354v0.12h-0.104v0.117h-0.106v0.12
	l-0.107,0.116v0.12h-0.104l-0.209,0.473v0.117h-0.107v0.117l-0.106,0.12v0.116c-2.217,4.024-4.011,8.162-5.38,12.42v0.117v0.119
	l-0.107,0.12l-0.106,0.354v0.12v0.117l-0.106,0.119v0.117v0.119l-0.209,0.708l-0.104,0.119v0.117v0.12v0.117h-0.106l-0.107,0.473
	v0.117v0.119l-0.104,0.117c-1.056,4.261-1.689,8.398-1.898,12.42v0.117v0.119v0.117v0.119v0.711v0.119v0.114v0.12v0.117v0.119v0.356
	v0.117v0.12v0.116v0.12v0.117v0.354v0.119v0.117v0.12v0.116c0.209,6.506,1.792,12.301,4.749,16.678
	c3.062,4.494,7.388,7.215,11.926,7.925v77.819h6.542V757.01C787.354,755.474,793.683,749.559,795.902,739.626"/>
<path fill-rule="evenodd" clip-rule="evenodd" fill="#231915" d="M740.809,791.665c8.023,0.12,19.313,0,19.313-1.066
	c0-0.237-0.842-3.431-2.003-8.276v-0.119l-0.106-0.117v-0.119v-0.117v-0.12h-0.104v-0.12v-0.116v-0.12l-0.106-0.117v-0.119v-0.117
	v-0.12h-0.104v-0.351l-0.104-0.239v-0.117v-0.12l-0.107-0.116v-0.12v-0.117V779.6h-0.106v-0.117v-0.12v-0.113l-0.107-0.12v-0.12
	v-0.116v-0.12h-0.102v-0.117v-0.12v-0.116l-0.106-0.12c-2.112-8.278-4.96-19.632-7.917-30.514v-0.12v-0.114h-0.104v-0.236v-0.12
	l-0.107-0.116v-0.12v-0.12v-0.117h-0.102v-0.119v-0.117v-0.119l-0.106-0.117v-0.12v-0.114v-0.119h-0.107v-0.117v-0.12v-0.12h-0.106
	v-0.116v-0.12v-0.117l-0.107-0.119v-0.117v-0.119v-0.117h-0.102v-0.12v-0.114l-0.106-0.119v-0.12v-0.117V744
	c-0.738-2.483-1.372-4.967-2.006-7.448l-0.106-0.12v-0.116l-0.209-0.714l-0.107-0.707h-0.106v-0.116v-0.12l-0.209-0.594v-0.116
	l-0.211-0.707v-0.12v-0.12l-0.106-0.116v-0.12v-0.117c-0.735-2.721-1.477-5.204-2.11-7.451v-0.117v-0.12h-0.106v-0.116v-0.12v-0.117
	l-0.107-0.119v-0.12v-0.117l-0.102-0.12v-0.116v-0.117v-0.116h-0.106v-0.12v-0.117l-0.104-0.12v-0.116v-0.12v-0.12h-0.107v-0.116
	v-0.12v-0.117h-0.104v-0.12v-0.116v-0.12h-0.107v-0.113v-0.12v-0.117l-0.102-0.12v-0.119v-0.117l-0.106-0.12v-0.116v-0.12
	l-0.107-0.117c-1.476-5.201-2.428-8.515-2.851-8.752c-1.583-1.417-2.109-2.011-2.636-2.011c-0.53,0-1.057,0.711-2.642,2.131
	c-0.316,0.351-1.161,3.781-2.321,8.985v0.12l-0.104,0.117v0.239v0.117l-0.106,0.354v0.116H731.1v0.12v0.117l-0.107,0.477v0.116
	l-0.104,0.474v0.117l-0.104,0.116v0.237l-0.107,0.239l-0.106,0.474v0.117v0.12v0.116h-0.107v0.117v0.116
	c-0.523,2.25-1.054,4.852-1.583,7.455v0.12v0.116h-0.102v0.117v0.117v0.119v0.117h-0.106v0.12v0.116v0.12v0.117h-0.107v0.12v0.119
	v0.117v0.12h-0.104v0.116v0.117v0.117v0.119l-0.106,0.117v0.12v0.116v0.12l-0.104,0.12v0.117v0.119v0.117v0.12h-0.106v0.116v0.12
	v0.114v0.119l-0.104,0.117v0.12v0.12v0.116c-0.527,2.367-1.057,4.968-1.58,7.569l-0.107,0.119v0.117v0.119v0.117l-0.106,0.12v0.116
	v0.12v0.12v0.117l-0.107,0.119v0.114v0.12v0.117v0.119h-0.106v0.117v0.119v0.117v0.12h-0.102v0.12v0.116v0.12v0.117l-0.107,0.119
	v0.114v0.12v0.116l-0.104,0.12v0.12v0.116v0.12v0.117h-0.106v0.12v0.116v0.12l-1.583,7.568l-0.211,1.301l-0.423,1.773l-0.209,0.943
	c-0.425,2.607-0.951,5.088-1.481,7.575v0.351l-0.419,1.657l-0.318,1.653l-0.102,0.357c-0.529,2.72-0.952,5.204-1.481,7.568v0.119
	v0.117v0.12v0.116l-0.107,0.12v0.117v0.12v0.119l-0.102,0.117v0.119v0.114v0.12v0.117l-0.106,0.119v0.117v0.12v0.116v0.12h-0.107
	v0.12v0.117v0.119v0.117v0.119h-0.106v0.114v0.12v0.117v0.119l-0.102,0.12v0.117v0.12v0.116v0.12h-0.107v0.117v0.119
	c-0.951,4.968-1.479,8.162-1.479,8.513c0,1.066,11.188,0.356,19.315-0.237l0.315,13.604l4.434-0.12L740.809,791.665z"/>
<path fill-rule="evenodd" clip-rule="evenodd" fill="#231915" d="M677.588,724.252c0,0,7.072,8.042,6.757,15.374
	c-0.107,4.019-3.166,6.622-7.075,6.505c-3.481-0.12-7.177-2.014-7.07-6.861C670.307,729.69,677.588,724.252,677.588,724.252
	 M679.698,793.082l-0.104,17.031h-4.014l0.107-16.674c-3.163-0.474-6.013-2.487-6.013-6.742c0.211-9.699,7.388-15.021,7.388-15.021
	s7.176,7.926,6.861,15.257C683.815,790.008,682.125,792.139,679.698,793.082 M697.323,771.797c0,0,7.072,8.042,6.861,15.254
	c-0.208,4.138-3.166,6.625-7.177,6.625c-3.481-0.12-7.176-2.011-7.069-6.861C690.147,777.115,697.323,771.797,697.323,771.797
	 M656.903,771.44c0,0,7.177,8.042,6.858,15.374c-0.104,4.138-3.166,6.625-7.177,6.505c-3.481,0-7.176-1.894-7.072-6.741
	C649.724,776.879,656.903,771.44,656.903,771.44 M667.243,747.785c0,0,7.075,8.045,6.861,15.377
	c-0.208,4.021-3.166,6.621-7.174,6.504c-3.484-0.119-7.179-2.013-7.072-6.861C660.066,753.227,667.243,747.785,667.243,747.785
	 M687.826,747.904c0,0,7.177,8.043,6.861,15.374c-0.214,4.138-3.166,6.625-7.18,6.505c-3.484,0-7.176-1.891-7.069-6.858
	C680.649,753.343,687.826,747.904,687.826,747.904"/>
<path fill-rule="evenodd" clip-rule="evenodd" fill="#231915" d="M1257.127,679.188c0.526-2.601,0.738-4.968,0.738-7.332v-0.117
	v-0.356v-0.119v-0.117v-0.12v-0.116v-0.234v-0.236v-0.12v-0.12v-0.116l-0.107-0.12v-0.354v-0.12v-0.116v-0.474v-0.117h-0.104
	c-0.211-2.837-0.847-5.441-1.794-8.042c-0.106-0.236-0.106-0.356-0.214-0.594l-0.102-0.119v-0.117l-0.106-0.236v-0.117h-0.107
	v-0.117v-0.119l-0.104-0.12v-0.116l-0.104-0.12l-0.106-0.237v-0.117c-1.054-2.483-2.428-4.851-3.903-6.978v-0.117l-0.107-0.12
	l-0.104-0.116l-0.106-0.12v-0.117h-0.104v-0.119h-0.107v-0.117l-0.104-0.12l-0.107-0.116v-0.12h-0.104v-0.12h-0.106v-0.117
	c-0.107-0.116-0.107-0.116-0.209-0.233v-0.12c-2.008-2.721-4.331-5.204-6.545-7.451h-0.107v-0.12h-0.102v-0.114h-0.106v-0.119
	h-0.107h-0.107v-0.117h-0.102v-0.119h-0.106v-0.12h-0.107l-0.104-0.117h-0.107l-0.315,0.356l-0.107,0.117
	c-2.32,2.364-4.323,4.965-6.013,7.925l-0.214,0.233v0.117h-0.107v0.12v0.12h-0.102v0.116l-0.211,0.237v0.119h-0.107v0.117v0.12
	h-0.104c-1.586,2.837-2.851,5.911-3.8,8.985v0.12l-0.107,0.356v0.117h-0.104v0.119v0.117l-0.211,0.59v0.12v0.117h-0.106v0.12
	l-0.104,0.354v0.119v0.117c-0.845,2.957-1.268,6.031-1.374,8.869v0.12v0.119v0.117v0.471v0.12v0.116v0.12v0.117v0.239v0.116v0.12
	v0.117v0.356v0.114v0.12v0.116c0.106,4.614,1.267,8.755,3.379,11.949c2.217,3.194,5.276,5.085,8.546,5.675v55.823h4.754v-55.94
	C1250.899,690.544,1255.438,686.286,1257.127,679.188"/>
<polygon fill-rule="evenodd" clip-rule="evenodd" fill="#FEFEFE" points="334.565,397.625 335.028,400.748 338.073,401.634 
	335.219,403.022 335.335,406.221 333.139,403.947 330.131,405.026 331.635,402.212 329.668,399.708 332.792,400.247 "/>
<path fill-rule="evenodd" clip-rule="evenodd" fill="#FEFEFE" d="M455.651,146.887c1.773-0.54,3.623,0.501,4.125,2.274
	c0.539,1.734-0.463,3.624-2.235,4.125c-1.773,0.501-3.624-0.501-4.163-2.274C452.877,149.239,453.879,147.388,455.651,146.887"/>
<polygon fill-rule="evenodd" clip-rule="evenodd" fill="#FEFEFE" points="438.449,85.436 439.72,88.829 443.343,89.021 
	440.53,91.295 441.494,94.803 438.449,92.837 435.403,94.803 436.328,91.295 433.514,89.021 437.137,88.829 "/>
<path fill-rule="evenodd" clip-rule="evenodd" fill="#FEFEFE" d="M324.039,147.575c1.773-0.54,3.623,0.501,4.125,2.274
	c0.539,1.734-0.463,3.624-2.235,4.125c-1.773,0.501-3.624-0.501-4.163-2.274C321.264,149.926,322.266,148.076,324.039,147.575"/>
<polygon fill-rule="evenodd" clip-rule="evenodd" fill="#FEFEFE" points="799.133,352.332 799.596,355.454 802.641,356.341 
	799.787,357.729 799.903,360.928 797.707,358.653 794.699,359.732 796.203,356.919 794.236,354.414 797.359,354.953 "/>
<polygon fill-rule="evenodd" clip-rule="evenodd" fill="#FEFEFE" points="873.568,224.894 874.84,228.286 878.463,228.479 
	875.649,230.753 876.613,234.261 873.568,232.295 870.522,234.261 871.447,230.753 868.634,228.479 872.257,228.286 "/>
<polygon fill-rule="evenodd" clip-rule="evenodd" fill="#FEFEFE" points="532.165,268.047 532.819,269.627 534.515,269.744 
	533.206,270.823 533.629,272.519 532.165,271.556 530.739,272.519 531.163,270.823 529.813,269.744 531.547,269.627 "/>
<g id="shoot2">
	<polygon fill-rule="evenodd" clip-rule="evenodd" fill="#66718D" points="523.298,337.51 589.754,294.144 527.038,342.752 	"/>
	<path fill-rule="evenodd" clip-rule="evenodd" fill="#FEFEFE" d="M524.223,336.932c1.773-0.54,3.623,0.501,4.125,2.274
		c0.539,1.734-0.463,3.624-2.235,4.125c-1.773,0.501-3.624-0.501-4.163-2.274C521.449,339.284,522.451,337.433,524.223,336.932"/>
</g>
<polygon fill-rule="evenodd" clip-rule="evenodd" fill="#FEFEFE" points="858.6,427.435 859.871,430.827 863.494,431.02 
	860.681,433.294 861.645,436.802 858.6,434.836 855.554,436.802 856.479,433.294 853.665,431.02 857.288,430.827 "/>
<polygon fill-rule="evenodd" clip-rule="evenodd" fill="#FEFEFE" points="1153.148,172.854 1153.803,174.434 1155.499,174.55 
	1154.189,175.629 1154.613,177.326 1153.148,176.363 1151.723,177.326 1152.146,175.629 1150.797,174.55 1152.531,174.434 "/>
<g id="shoot1">
	<polygon fill-rule="evenodd" clip-rule="evenodd" fill="#66718D" points="1144.282,242.317 1210.738,198.951 1148.021,247.559 	"/>
	<path fill-rule="evenodd" clip-rule="evenodd" fill="#FEFEFE" d="M1145.207,241.739c1.773-0.54,3.623,0.501,4.125,2.274
		c0.539,1.734-0.463,3.624-2.235,4.125c-1.773,0.501-3.624-0.501-4.163-2.274C1142.433,244.09,1143.435,242.24,1145.207,241.739"/>
</g>
<path fill-rule="evenodd" clip-rule="evenodd" fill="#FEFEFE" d="M906.849,125.898c1.773-0.54,3.623,0.501,4.125,2.274
	c0.539,1.734-0.463,3.624-2.235,4.125c-1.773,0.501-3.624-0.501-4.163-2.274C904.074,128.25,905.076,126.399,906.849,125.898"/>
<polygon fill-rule="evenodd" clip-rule="evenodd" fill="#FEFEFE" points="729.983,91.48 730.446,94.603 733.491,95.489 
	730.638,96.877 730.754,100.076 728.558,97.802 725.55,98.881 727.054,96.067 725.087,93.563 728.21,94.102 "/>
<polygon fill-rule="evenodd" clip-rule="evenodd" fill="#FEFEFE" points="247.679,358.28 248.951,361.673 252.574,361.865 
	249.76,364.14 250.724,367.647 247.679,365.682 244.633,367.647 245.558,364.14 242.745,361.865 246.368,361.673 "/>
<polygon fill-rule="evenodd" clip-rule="evenodd" fill="#FEFEFE" points="509.208,494.527 510.479,497.92 514.103,498.111 
	511.289,500.387 512.253,503.895 509.208,501.928 506.162,503.895 507.087,500.387 504.273,498.111 507.896,497.92 "/>
<g id="shoot3">
	<polygon fill-rule="evenodd" clip-rule="evenodd" fill="#66718D" points="393.873,557.244 460.329,513.877 397.612,562.486 	"/>
	<path fill-rule="evenodd" clip-rule="evenodd" fill="#FEFEFE" d="M394.798,556.666c1.773-0.541,3.623,0.5,4.125,2.273
		c0.539,1.734-0.463,3.625-2.235,4.125c-1.773,0.502-3.624-0.5-4.163-2.273C392.023,559.018,393.025,557.166,394.798,556.666"/>
</g>
<path fill-rule="evenodd" clip-rule="evenodd" fill="#FEFEFE" d="M658.714,661.069c1.773-0.541,3.623,0.5,4.125,2.273
	c0.539,1.734-0.463,3.625-2.235,4.125c-1.773,0.502-3.624-0.5-4.163-2.273C655.94,663.421,656.942,661.569,658.714,661.069"/>
<g id="star2">
	<polygon fill-rule="evenodd" clip-rule="evenodd" fill="#FEFEFE" points="247.679,102.73 248.951,106.123 252.574,106.315 
		249.76,108.59 250.724,112.098 247.679,110.132 244.633,112.098 245.558,108.59 242.745,106.315 246.368,106.123 	"/>
	<path fill-rule="evenodd" clip-rule="evenodd" fill="#FEFEFE" d="M95.853,142.864c1.773-0.54,3.623,0.501,4.125,2.274
		c0.539,1.734-0.463,3.624-2.235,4.125c-1.773,0.501-3.624-0.501-4.163-2.274C93.078,145.216,94.08,143.365,95.853,142.864"/>
	<polygon fill-rule="evenodd" clip-rule="evenodd" fill="#FEFEFE" points="302.532,263.441 303.186,265.021 304.882,265.137 
		303.573,266.216 303.997,267.913 302.532,266.95 301.106,267.913 301.53,266.216 300.18,265.137 301.915,265.021 	"/>
	<polygon fill-rule="evenodd" clip-rule="evenodd" fill="#FEFEFE" points="409,270.187 410.272,273.58 413.895,273.772 
		411.082,276.046 412.045,279.554 409,277.588 405.955,279.554 406.879,276.046 404.066,273.772 407.689,273.58 	"/>
	<polygon fill-rule="evenodd" clip-rule="evenodd" fill="#FEFEFE" points="495.626,212.187 496.089,215.309 499.134,216.196 
		496.28,217.583 496.396,220.783 494.2,218.508 491.192,219.587 492.696,216.774 490.729,214.269 493.853,214.808 	"/>
	<polygon fill-rule="evenodd" clip-rule="evenodd" fill="#FEFEFE" points="564.198,402.232 564.661,405.354 567.706,406.241 
		564.852,407.628 564.968,410.828 562.772,408.553 559.764,409.632 561.268,406.819 559.301,404.314 562.424,404.853 	"/>
	<polygon fill-rule="evenodd" clip-rule="evenodd" fill="#FEFEFE" points="638.633,274.793 639.905,278.186 643.528,278.378 
		640.714,280.653 641.678,284.161 638.633,282.195 635.587,284.161 636.512,280.653 633.699,278.378 637.322,278.186 	"/>
	<polygon fill-rule="evenodd" clip-rule="evenodd" fill="#FEFEFE" points="784.164,554.873 784.627,557.995 787.672,558.882 
		784.818,560.27 784.935,563.469 782.738,561.194 779.73,562.273 781.234,559.46 779.268,556.955 782.391,557.494 	"/>
	<polygon fill-rule="evenodd" clip-rule="evenodd" fill="#FEFEFE" points="1259.617,179.6 1260.889,182.993 1264.512,183.185 
		1261.698,185.459 1262.662,188.967 1259.617,187.001 1256.571,188.967 1257.496,185.459 1254.683,183.185 1258.306,182.993 	"/>
	<polygon fill-rule="evenodd" clip-rule="evenodd" fill="#FEFEFE" points="946.823,191.198 947.286,194.32 950.331,195.207 
		947.478,196.594 947.594,199.793 945.397,197.519 942.39,198.598 943.894,195.785 941.927,193.28 945.05,193.819 	"/>
	<path fill-rule="evenodd" clip-rule="evenodd" fill="#FEFEFE" d="M690.009,26.181c1.773-0.54,3.623,0.501,4.125,2.274
		c0.539,1.734-0.463,3.624-2.235,4.125c-1.773,0.501-3.624-0.501-4.163-2.274C687.234,28.532,688.236,26.682,690.009,26.181"/>
	<polygon fill-rule="evenodd" clip-rule="evenodd" fill="#FEFEFE" points="173.244,485.719 173.707,488.841 176.751,489.728 
		173.898,491.115 174.014,494.314 171.818,492.04 168.81,493.119 170.314,490.306 168.347,487.801 171.47,488.34 	"/>
	<polygon fill-rule="evenodd" clip-rule="evenodd" fill="#FEFEFE" points="141.21,351.534 141.865,353.114 143.561,353.23 
		142.251,354.31 142.675,356.006 141.21,355.043 139.785,356.006 140.208,354.31 138.859,353.23 140.593,353.114 	"/>
	<polygon fill-rule="evenodd" clip-rule="evenodd" fill="#FEFEFE" points="402.739,487.781 403.394,489.361 405.09,489.477 
		403.78,490.557 404.204,492.252 402.739,491.289 401.313,492.252 401.737,490.557 400.388,489.477 402.122,489.361 	"/>
	<polygon fill-rule="evenodd" clip-rule="evenodd" fill="#FEFEFE" points="698.689,726.368 699.152,729.491 702.197,730.378 
		699.344,731.765 699.459,734.964 697.264,732.69 694.256,733.769 695.76,730.956 693.793,728.45 696.916,728.989 	"/>
	<polygon fill-rule="evenodd" clip-rule="evenodd" fill="#FEFEFE" points="1070.098,533.883 1070.561,537.006 1073.605,537.893 
		1070.752,539.279 1070.867,542.479 1068.672,540.205 1065.664,541.283 1067.168,538.471 1065.201,535.965 1068.324,536.504 	"/>
</g>
<polygon fill-rule="evenodd" clip-rule="evenodd" fill="#FEFEFE" points="1038.064,399.699 1038.719,401.279 1040.414,401.395 
	1039.105,402.475 1039.529,404.17 1038.064,403.207 1036.639,404.17 1037.063,402.475 1035.713,401.395 1037.447,401.279 "/>
<g id="shoot4">
	<polygon fill-rule="evenodd" clip-rule="evenodd" fill="#66718D" points="1029.197,469.162 1095.654,425.795 1032.938,474.404 	"/>
	<path fill-rule="evenodd" clip-rule="evenodd" fill="#FEFEFE" d="M1030.123,468.584c1.773-0.541,3.623,0.5,4.125,2.273
		c0.539,1.734-0.463,3.625-2.236,4.125c-1.773,0.502-3.623-0.5-4.162-2.273C1027.348,470.936,1028.35,469.084,1030.123,468.584"/>
</g>
<text transform="matrix(1 0 0 1 684.5 427.2397)" font-family="'MyriadPro-Regular'" font-size="12">000000</text>
<polygon fill-rule="evenodd" clip-rule="evenodd" fill="#FEFEFE" points="1314.43,512.894 1314.893,516.017 1317.938,516.903 
	1315.084,518.29 1315.199,521.489 1313.004,519.216 1309.996,520.294 1311.5,517.481 1309.533,514.976 1312.656,515.515 "/>
<g id="star1">
	<polygon fill-rule="evenodd" clip-rule="evenodd" fill="#FEFEFE" points="135.827,208.164 136.29,211.286 139.335,212.173 
		136.481,213.561 136.598,216.76 134.401,214.485 131.394,215.564 132.897,212.751 130.931,210.246 134.054,210.785 	"/>
	<polygon fill-rule="evenodd" clip-rule="evenodd" fill="#FEFEFE" points="570.062,84.749 571.333,88.141 574.956,88.333 
		572.143,90.608 573.106,94.116 570.062,92.15 567.016,94.116 567.94,90.608 565.127,88.333 568.75,88.141 	"/>
	<polygon fill-rule="evenodd" clip-rule="evenodd" fill="#FEFEFE" points="364.013,212.875 364.476,215.997 367.521,216.883 
		364.667,218.271 364.784,221.47 362.587,219.196 359.58,220.275 361.083,217.461 359.117,214.957 362.24,215.496 	"/>
	<polygon fill-rule="evenodd" clip-rule="evenodd" fill="#FEFEFE" points="331.559,30.473 332.213,32.053 333.909,32.169 
		332.6,33.249 333.023,34.945 331.559,33.982 330.133,34.945 330.557,33.249 329.207,32.169 330.941,32.053 	"/>
	<path fill-rule="evenodd" clip-rule="evenodd" fill="#FEFEFE" d="M759.158,287.032c1.773-0.54,3.623,0.501,4.125,2.274
		c0.539,1.734-0.463,3.624-2.235,4.125c-1.773,0.501-3.624-0.501-4.163-2.274C756.384,289.384,757.386,287.533,759.158,287.032"/>
	<polygon fill-rule="evenodd" clip-rule="evenodd" fill="#FEFEFE" points="752.131,420.688 752.785,422.269 754.481,422.385 
		753.172,423.464 753.596,425.16 752.131,424.197 750.705,425.16 751.129,423.464 749.779,422.385 751.514,422.269 	"/>
	<polygon fill-rule="evenodd" clip-rule="evenodd" fill="#FEFEFE" points="1185.182,307.039 1185.645,310.161 1188.689,311.047 
		1185.836,312.435 1185.952,315.634 1183.756,313.36 1180.748,314.439 1182.252,311.625 1180.285,309.121 1183.408,309.66 	"/>
	<polygon fill-rule="evenodd" clip-rule="evenodd" fill="#FEFEFE" points="1021.259,63.759 1022.53,67.152 1026.153,67.344 
		1023.34,69.619 1024.304,73.126 1021.259,71.161 1018.213,73.126 1019.138,69.619 1016.324,67.344 1019.947,67.152 	"/>
	<path fill-rule="evenodd" clip-rule="evenodd" fill="#FEFEFE" d="M133.269,420.419c1.773-0.54,3.623,0.501,4.125,2.274
		c0.539,1.734-0.463,3.624-2.235,4.125c-1.773,0.501-3.624-0.501-4.163-2.274C130.495,422.771,131.497,420.92,133.269,420.419"/>
	<polygon fill-rule="evenodd" clip-rule="evenodd" fill="#FEFEFE" points="434.772,621.965 435.235,625.088 438.28,625.975 
		435.427,627.361 435.543,630.561 433.347,628.287 430.339,629.365 431.843,626.553 429.876,624.047 432.999,624.586 	"/>
	<polygon fill-rule="evenodd" clip-rule="evenodd" fill="#FEFEFE" points="773.125,598.931 774.396,602.323 778.02,602.515 
		775.205,604.79 776.17,608.298 773.125,606.331 770.078,608.298 771.004,604.79 768.189,602.515 771.813,602.323 	"/>
	<polygon fill-rule="evenodd" clip-rule="evenodd" fill="#FEFEFE" points="1144.533,406.445 1145.805,409.838 1149.428,410.029 
		1146.613,412.305 1147.578,415.813 1144.533,413.846 1141.486,415.813 1142.412,412.305 1139.598,410.029 1143.221,409.838 	"/>
	<path fill-rule="evenodd" clip-rule="evenodd" fill="#FEFEFE" d="M1274.455,447.595c1.773-0.541,3.623,0.5,4.125,2.273
		c0.539,1.734-0.463,3.625-2.236,4.125c-1.773,0.502-3.623-0.5-4.162-2.273C1271.68,449.946,1272.682,448.095,1274.455,447.595"/>
</g>
<g id="star3">
	<polygon fill-rule="evenodd" clip-rule="evenodd" fill="#FEFEFE" points="103.794,73.979 104.448,75.56 106.145,75.676 
		104.835,76.755 105.259,78.451 103.794,77.488 102.368,78.451 102.792,76.755 101.442,75.676 103.177,75.56 	"/>
	<path fill-rule="evenodd" clip-rule="evenodd" fill="#FEFEFE" d="M294.59,332.326c1.773-0.54,3.623,0.501,4.125,2.274
		c0.539,1.734-0.463,3.624-2.235,4.125c-1.773,0.501-3.624-0.501-4.163-2.274C291.816,334.677,292.818,332.827,294.59,332.326"/>
	<polygon fill-rule="evenodd" clip-rule="evenodd" fill="#FEFEFE" points="463.593,78.002 464.247,79.583 465.943,79.699 
		464.634,80.778 465.058,82.474 463.593,81.511 462.167,82.474 462.591,80.778 461.241,79.699 462.976,79.583 	"/>
	<polygon fill-rule="evenodd" clip-rule="evenodd" fill="#FEFEFE" points="767.1,218.147 767.754,219.728 769.45,219.844 
		768.141,220.923 768.564,222.619 767.1,221.656 765.674,222.619 766.098,220.923 764.748,219.844 766.482,219.728 	"/>
	<path fill-rule="evenodd" clip-rule="evenodd" fill="#FEFEFE" d="M744.189,489.573c1.773-0.54,3.623,0.501,4.125,2.274
		c0.539,1.734-0.463,3.624-2.235,4.125c-1.773,0.501-3.624-0.501-4.163-2.274C741.415,491.925,742.417,490.074,744.189,489.573"/>
	<polygon fill-rule="evenodd" clip-rule="evenodd" fill="#FEFEFE" points="914.79,57.013 915.444,58.593 917.141,58.709 
		915.831,59.789 916.255,61.485 914.79,60.522 913.364,61.485 913.788,59.789 912.438,58.709 914.173,58.593 	"/>
	<polygon fill-rule="evenodd" clip-rule="evenodd" fill="#FEFEFE" points="666.656,592.185 667.31,593.765 669.006,593.88 
		667.697,594.96 668.121,596.655 666.656,595.692 665.23,596.655 665.654,594.96 664.304,593.88 666.039,593.765 	"/>
	<polygon fill-rule="evenodd" clip-rule="evenodd" fill="#FEFEFE" points="1282.396,378.71 1283.051,380.29 1284.746,380.405 
		1283.438,381.485 1283.861,383.181 1282.396,382.218 1280.971,383.181 1281.395,381.485 1280.045,380.405 1281.779,380.29 	"/>
	<polygon fill-rule="evenodd" clip-rule="evenodd" fill="#FEFEFE" points="1314.43,119.807 1314.893,122.93 1317.938,123.817 
		1315.084,125.204 1315.199,128.403 1313.004,126.129 1309.996,127.208 1311.5,124.395 1309.533,121.889 1312.656,122.428 	"/>
</g>
<path fill-rule="evenodd" clip-rule="evenodd" fill="#FEFEFE" d="M1274.455,54.508c1.773-0.541,3.623,0.5,4.125,2.273
	c0.539,1.734-0.463,3.625-2.236,4.125c-1.773,0.502-3.623-0.5-4.162-2.273C1271.68,56.86,1272.682,55.008,1274.455,54.508"/>
</svg>
