<?xml version="1.0" encoding="UTF-8"?>
<svg width="65px" height="63px" viewBox="0 0 65 63" version="1.1" xmlns="http://www.w3.org/2000/svg" xmlns:xlink="http://www.w3.org/1999/xlink">
    <!-- Generator: sketchtool 54.1 (76490) - https://sketchapp.com -->
    <title>04632A66-8C48-4F19-BCC9-A3A0FA4F86AF</title>
    <desc>Created with sketchtool.</desc>
    <defs>
        <path d="M62.9429456,49.1720677 L64.471633,47.0911622 C64.6776733,46.7795305 64.7783252,46.54182 64.7735886,46.3780307 C64.7688521,46.2142414 64.6543595,45.9733436 64.4301108,45.6553374 L62.9396407,43.574432 L62.8440977,43.4287686 C61.7166908,41.9097076 60.5319581,40.3282194 59.366334,38.7883494 C58.2007099,37.2484793 57.7486064,38.0600325 56.6976338,38.9548218 C55.6466613,39.8496112 55.0477923,39.9744655 56.0987648,41.680808 L56.8822171,42.8044969 L57.8600602,44.1053937 C53.351247,44.1537276 50.6598443,44.0530402 49.7858522,43.8033316 C48.474864,43.4287686 48.0865545,42.4358696 47.8929896,41.7224261 C47.6430805,40.8229429 47.4954781,39.8934614 47.453492,38.9548218 C47.357949,37.0195797 47.2624061,35.0427195 47.1859717,33.1490956 L47.1859717,33.1699046 C47.033103,29.5283201 46.8802342,25.7826902 46.5553882,22.0994875 C46.3551747,17.1292463 44.9366097,12.308026 42.4470409,8.13661186 C39.3724616,2.94571009 33.895745,0.0559777051 28.2493573,0.645352178 C23.3484332,0.946288411 19.3607944,5.05144208 18.8097129,10.3631807 C18.3259215,14.22854 19.2595511,18.1458746 21.4084814,21.2671254 C23.1003723,23.5110623 24.9124733,25.6442355 26.8353215,27.6555051 L28.2493573,29.2161842 C28.8035064,29.8404559 29.4340899,30.4231094 30.0455649,30.9641448 C30.8446345,31.6697409 31.5980295,32.4345571 32.3003787,33.2531408 C35.9854142,37.2175201 37.6923579,42.871503 36.8864407,48.4437507 C36.4023241,52.9456611 33.050369,56.4387173 28.8990494,56.7673726 C24.5607863,56.6780912 20.8789551,53.27743 20.0899886,48.6310322 C19.6725168,45.9017747 19.9297355,43.1006895 20.8352237,40.5155009 C21.8060622,37.5001227 22.1391908,34.2849538 21.8097618,31.1098082 C21.3694193,26.0568813 18.0684161,21.8463551 13.5548502,20.5804265 C7.72458029,19.5558021 2.1562696,23.6044081 0.790310915,29.8612649 L0.369921896,31.5259893 L0.178835979,32.2959243 L0.178835979,37.7270876 L0.446356263,38.9756309 L0.790310915,40.6403552 C2.27689977,47.8056968 5.37630925,54.4560327 9.80956622,59.9927761 C10.4810017,60.8233671 11.2231828,61.5828222 12.0261629,62.260963 C12.4391524,62.6903525 13.2320406,61.612113 13.836999,60.9683183 C14.5060384,59.9927761 15.1409001,59.2696543 14.6822571,58.9315143 C10.4210618,54.4685833 7.29963005,48.8749528 5.62478463,42.7004517 C4.45042979,39.3907198 4.08180802,35.8065661 4.55470349,32.2959243 C4.8772444,29.9516157 6.02950485,27.8378761 7.7649469,26.4069619 C9.10183065,25.2206323 10.8375987,24.7064889 12.5420948,24.9919461 C14.2072419,25.3894586 15.6385169,26.5395255 16.4784647,28.1549224 C18.0861898,31.1760511 18.3395048,34.8311602 17.166374,38.0808415 C16.1255301,41.2897154 15.6837596,44.6926733 15.8669898,48.0899968 C16.3729159,55.2040546 21.6312501,60.8147326 28.1729229,61.2205103 L28.6697463,61.2205103 C35.0055525,61.1747676 40.320292,56.0024051 41.0712223,49.1512586 C42.0568145,42.4921987 40.1349713,35.7134639 35.8736854,30.8184814 C34.8590652,29.6063666 33.7740122,28.4664592 32.6252248,27.4057965 C31.9373155,26.7399067 31.211189,26.0532079 30.5423883,25.324891 L29.8353704,24.575765 C28.301406,23.0198345 26.8469682,21.3734461 25.4786115,19.6440191 C23.8424908,17.5515903 22.9657333,14.8796876 23.0136031,12.1319504 C22.8917177,10.3249068 23.4643443,8.54388256 24.594703,7.2143001 C25.7250618,5.88471764 27.3116481,5.12597158 28.9754837,5.11929893 C33.1385792,4.70982926 37.1466484,6.94483784 39.2750147,10.862598 C41.3443969,14.5567482 42.4967227,18.7731135 42.6190183,23.0983222 C42.8483214,25.9699717 42.9629729,28.9040484 43.0585159,31.7340798 L43.0585159,31.9213613 C43.0585159,33.6277038 43.1731674,35.3756644 43.2687104,37.102816 C43.3384203,38.8571052 43.5300544,40.6031242 43.8419681,42.3258887 C44.2375747,45.8183417 46.9176648,48.4716051 50.1478034,48.5686051 L51.0459072,48.6934594 L57.8600602,48.6310322 L57.5543227,49.0888314 L57.0192822,49.8379574 C56.6562189,50.3581838 56.3313729,50.836792 56.0065268,51.3154003 C55.6030712,51.7619475 55.7574573,52.2758931 57.0192822,53.2866812 C58.281107,54.2974693 58.9037168,54.6790576 59.1976616,54.1246227 C60.3632857,52.5431345 61.6817786,50.836792 62.9429456,49.1720677 Z" id="path-1"></path>
        <path d="M2.32139625,46.1741724 C3.09533949,48.6186693 4.32720994,52.2458084 8.32425782,58.0030451 C9.33432811,59.4579223 11.3385779,62.1563966 12.1908356,62.3598622 C12.8046358,62.3598622 13.1989426,61.7397566 13.7479434,61.0641093 C14.2969442,60.388462 15.2257933,59.3604145 14.7932839,59.0415418 C13.514803,58.0030451 7.48516992,47.8687396 6.37436313,45.2114429 C4.353996,45.7019931 4.97338918,45.6837697 2.32139625,46.1741724 Z" id="path-3"></path>
    </defs>
    <g id="NLR-Candidate-Report-(Web)" stroke="none" stroke-width="1" fill="none" fill-rule="evenodd">
        <g id="Factor-Icons---Candidate-Facing" transform="translate(-708.000000, -340.000000)">
            <g id="Icons/Factors/Focus-Dark-bg" transform="translate(697.000000, 328.000000)">
                <g id="Icons/Factors/Focus" transform="translate(11.000000, 12.000000)">
                    <mask id="mask-2" fill="white">
                        <use xlink:href="#path-1"></use>
                    </mask>
                    <use id="Shape" fill="#E9EFFF" fill-rule="nonzero" xlink:href="#path-1"></use>
                    <mask id="mask-4" fill="white">
                        <use xlink:href="#path-3"></use>
                    </mask>
                    <use id="Shape-Copy-2" fill="#8AA7FA" fill-rule="nonzero" xlink:href="#path-3"></use>
                </g>
            </g>
        </g>
    </g>
</svg>