<?xml version="1.0" encoding="UTF-8"?>
<svg width="77px" height="72px" viewBox="0 0 77 72" version="1.1" xmlns="http://www.w3.org/2000/svg" xmlns:xlink="http://www.w3.org/1999/xlink">
    <!-- Generator: sketchtool 54.1 (76490) - https://sketchapp.com -->
    <title>2522CF0B-7BAD-42BE-A614-98F1D4F280D7</title>
    <desc>Created with sketchtool.</desc>
    <g id="NLR-Candidate-Report-(Web)" stroke="none" stroke-width="1" fill="none" fill-rule="evenodd">
        <g id="Factor-Icons---Candidate-Facing" transform="translate(-311.000000, -336.000000)">
            <g id="Icons/Factors/Decision-Making-Dark-bg" transform="translate(306.000000, 328.000000)">
                <g id="Icons/Factors/Decision-Making" transform="translate(5.000000, 8.000000)">
                    <path d="M38.4372851,71.0784829 L33.9322624,71.0784829 L33.9322624,49.2848277 C33.6842695,44.113212 29.7591302,40.0739711 25.0302262,40.1240143 L18.2988235,40.1240143 L18.2988235,28.9601076 C22.0966236,29.0392365 24.3404245,29.0966062 25.0302262,29.1322167 C26.0649289,29.1856325 29.2094039,29.8634185 30.9258282,30.2932356 C32.5622879,30.7030284 34.0054299,31.423024 34.0054299,30.8830772 L34.0054299,20.1999129 C34.0054299,19.4623943 33.9810407,18.7032279 33.9322624,17.9224138 L38.4372851,17.9224138 L43.2663348,17.9224138 C43.2175566,18.7032279 43.1931674,19.4623943 43.1931674,20.1999129 L43.1931674,30.8830772 C43.1931674,31.423024 44.6363093,30.7030284 46.272769,30.2932356 C47.9891933,29.8634185 51.1336684,29.1856325 52.168371,29.1322167 C52.8581728,29.0966062 55.1019737,29.0392365 58.8997738,28.9601076 L58.8997738,40.1240143 L52.168371,40.1240143 C47.439467,40.0739711 43.5143278,44.113212 43.2663348,49.2848277 L43.2663348,71.0784829 L38.4372851,71.0784829 Z" id="Combined-Shape" fill="#E9EFFF" fill-rule="nonzero"></path>
                    <polygon id="Triangle" stroke="#8AA7FA" fill="#8AA7FA" points="38.5490127 0 48.0259358 17.9224138 29.0720896 17.9224138"></polygon>
                    <polygon id="Triangle-Copy" stroke="#8AA7FA" fill="#8AA7FA" transform="translate(67.523077, 33.954487) rotate(90.000000) translate(-67.523077, -33.954487) " points="67.5230769 25.0698715 77.0816976 42.8391023 57.9644562 42.8391023"></polygon>
                    <polygon id="Triangle-Copy-2" stroke="#8AA7FA" fill="#8AA7FA" transform="translate(9.476923, 33.954487) scale(-1, 1) rotate(90.000000) translate(-9.476923, -33.954487) " points="9.47692308 25.0698715 19.0355438 42.8391023 -0.0816976127 42.8391023"></polygon>
                </g>
            </g>
        </g>
    </g>
</svg>