<?xml version="1.0" encoding="UTF-8"?>
<svg width="74px" height="62px" viewBox="0 0 74 62" version="1.1" xmlns="http://www.w3.org/2000/svg" xmlns:xlink="http://www.w3.org/1999/xlink">
    <!-- Generator: sketchtool 54.1 (76490) - https://sketchapp.com -->
    <title>BF7BFCBE-9ECD-405F-B8AC-BF3FC534EEE5</title>
    <desc>Created with sketchtool.</desc>
    <g id="NLR-Candidate-Report-(Web)" stroke="none" stroke-width="1" fill="none" fill-rule="evenodd">
        <g id="Factor-Icons---Candidate-Facing" transform="translate(-509.000000, -338.000000)">
            <g id="Icons/Factors/Emotion-Dark-bg" transform="translate(502.000000, 328.000000)">
                <g id="Icons/Factors/Emotion" transform="translate(5.000000, 8.000000)">
                    <g id="illo" transform="translate(51.044182, 43.321636) rotate(30.000000) translate(-51.044182, -43.321636) translate(32.939436, 21.099098)" fill="#E9EFFF">
                        <g id="Group-18">
                            <g id="Group-3">
                                <path d="M0.871573423,1.83265856 C2.11082082,6.8278716e-15 33.9568657,-0.0251378363 35.0831784,1.83265856 C36.2094911,3.69045496 36.4736229,42.8542363 18.1047456,43.6220189 C-0.264131779,44.3898015 -0.367673976,3.66531713 0.871573423,1.83265856 Z" id="Fill-1"></path>
                            </g>
                        </g>
                    </g>
                    <g id="illo-copy" transform="translate(25.277600, 27.689240) rotate(-20.000000) translate(-25.277600, -27.689240) translate(7.172855, 5.466702)" fill="#E9EFFF">
                        <g id="Group-18">
                            <g id="Group-3">
                                <path d="M0.871573423,1.83265856 C2.11082082,6.66133815e-15 33.9568657,-0.0251378363 35.0831784,1.83265856 C36.2094911,3.69045496 36.4736229,42.8542363 18.1047456,43.6220189 C-0.264131779,44.3898015 -0.367673976,3.66531713 0.871573423,1.83265856 Z" id="Fill-1"></path>
                            </g>
                        </g>
                    </g>
                    <path d="M45.4747717,30.0836979 C47.0914998,28.0633134 48.730199,27.4646167 50.3908691,28.2876076 C52.0515393,29.1105986 52.2963318,30.8137289 51.1252468,33.3969985" id="Path-4" stroke="#8AA7FA" stroke-width="2"></path>
                    <path d="M59.1396352,37.3726345 C60.7563634,35.3522501 62.3950625,34.7535533 64.0557327,35.5765443 C65.7164028,36.3995352 65.9611954,38.1026655 64.7901103,40.6859351" id="Path-4-Copy" stroke="#8AA7FA" stroke-width="2"></path>
                    <path d="M40.9198171,47.3499235 C42.4742313,44.9964298 44.6877255,41.6728697 49.9756933,44.5113966 C53.5010052,46.4037479 54.5057987,49.3804737 52.990074,53.4415742" id="Path-4-Copy-2" stroke="#8AA7FA" stroke-width="2"></path>
                    <path d="M11.9283384,21.6597192 C13.5798696,19.5031083 15.2537392,18.8639631 16.9499473,19.7422835 C18.6461554,20.6206039 18.8960713,22.4384575 17.6996951,25.1958442" id="Path-4-Copy-5" stroke="#8AA7FA" stroke-width="2" transform="translate(15.185134, 22.278422) rotate(-50.000000) translate(-15.185134, -22.278422) "></path>
                    <path d="M25.593202,17.1041339 C27.2447331,14.9475229 28.9186027,14.3083777 30.6148109,15.1866981 C32.311019,16.0650185 32.5609349,17.8828721 31.3645586,20.6402588" id="Path-4-Copy-4" stroke="#8AA7FA" stroke-width="2" transform="translate(28.849997, 17.722837) rotate(-50.000000) translate(-28.849997, -17.722837) "></path>
                    <path d="M20.77287,29.5710119 C22.3257853,27.1230674 24.537143,23.6661244 29.8192425,26.6180796 C33.3406422,28.5860498 34.3441478,31.6820357 32.8297594,35.9060376" id="Path-4-Copy-3" stroke="#8AA7FA" stroke-width="2" transform="translate(27.142876, 30.694240) scale(-1, -1) rotate(-50.000000) translate(-27.142876, -30.694240) "></path>
                </g>
            </g>
        </g>
    </g>
</svg>