<?xml version="1.0" encoding="UTF-8"?>
<svg width="68px" height="61px" viewBox="0 0 68 61" version="1.1" xmlns="http://www.w3.org/2000/svg" xmlns:xlink="http://www.w3.org/1999/xlink">
    <!-- Generator: sketchtool 54.1 (76490) - https://sketchapp.com -->
    <title>A03A725D-6F6C-47A0-A240-EF7B73BDFF00</title>
    <desc>Created with sketchtool.</desc>
    <g id="NLR-Candidate-Report-(Web)" stroke="none" stroke-width="1" fill="none" fill-rule="evenodd">
        <g id="Factor-Icons---Candidate-Facing" transform="translate(-707.000000, -163.000000)">
            <g id="Icons/Factors/Fairness-Dark-bg" transform="translate(697.000000, 150.000000)">
                <g id="Icons/Factors/Fairness" transform="translate(10.000000, 13.000000)">
                    <g id="Group-4" fill="#E9EFFF">
                        <polygon id="Path" transform="translate(32.335772, 24.933333) rotate(50.000000) translate(-32.335772, -24.933333) " points="15.9732363 13.5835647 48.6983072 13.5835647 48.6983072 11.3333333 52.7357717 11.3333333 52.7357717 38.5333333 48.6983072 38.5333333 48.6983072 36.2870046 15.9732363 36.2870046 15.9732363 38.5333333 11.9357717 38.5333333 11.9357717 11.3333333 15.9732363 11.3333333"></polygon>
                        <polygon id="Rectangle" transform="translate(13.600000, 41.272398) scale(1, -1) rotate(-50.000000) translate(-13.600000, -41.272398) " points="10.2 27.5092862 17 27.5092862 15.8797287 55.0355101 11.3463953 55.0355101"></polygon>
                    </g>
                    <rect id="Rectangle" fill="#E9EFFF" x="32.8666667" y="54.4" width="35.1333333" height="5.66666667"></rect>
                    <polygon id="Rectangle" fill="#8AA7FA" points="32.4352023 46.2096742 53.2716112 28.7258512 55.8668434 31.8187285 35.0304345 49.3025515"></polygon>
                    <polygon id="Rectangle-Copy-4" fill="#8AA7FA" points="8.80470006 18.0479382 29.6411089 0.564115202 32.2363411 3.65699248 11.3999322 21.1408155"></polygon>
                </g>
            </g>
        </g>
    </g>
</svg>