<?xml version="1.0" encoding="utf-8"?>
<!-- Generator: Adobe Illustrator 16.0.0, SVG Export Plug-In . SVG Version: 6.00 Build 0)  -->
<!DOCTYPE svg PUBLIC "-//W3C//DTD SVG 1.1//EN" "http://www.w3.org/Graphics/SVG/1.1/DTD/svg11.dtd">
<svg version="1.1" id="Layer_1" xmlns="http://www.w3.org/2000/svg" xmlns:xlink="http://www.w3.org/1999/xlink" x="0px" y="0px"
	 width="745.794px" height="746.002px" viewBox="0 0 745.794 746.002" enable-background="new 0 0 745.794 746.002"
	 xml:space="preserve">
<g>
	<path fill-rule="evenodd" clip-rule="evenodd" fill="#FE3D00" d="M42.976,199.462c3.166-6.951,7.16-13.456,11.12-19.952
		c22.069-36.207,49.442-67.875,82.224-94.763c42.893-35.183,91.271-59.682,145.049-73.382c15.748-4.012,31.729-6.826,47.891-8.742
		c21.53-2.552,43.106-3.277,64.715-2.018c45.583,2.656,89.295,13.205,130.956,31.983c30.612,13.798,58.909,31.35,84.749,52.813
		c5.232,4.345,10.234,8.966,15.47,13.307c1.674,1.387,1.549,2.095,0.077,3.561c-22.921,22.828-45.779,45.719-68.651,68.596
		c-11.14,11.142-22.308,22.255-33.382,33.461c-1.449,1.466-2.236,1.474-3.794,0.121c-24.931-21.65-53.191-37.246-84.963-46.36
		c-23.056-6.614-46.56-9.474-70.553-8.427c-50.589,2.208-95.372,19.525-134.276,51.82c-28.022,23.262-48.897,51.93-63.061,85.483
		c-0.318,0.751-0.748,1.455-1.125,2.182c-1.574,0.922-2.629-0.176-3.738-0.984c-14.446-10.524-28.822-21.145-43.253-31.688
		c-23.676-17.298-47.263-34.718-70.94-52.014C45.678,203.135,43.311,202.177,42.976,199.462z"/>
	<path fill-rule="evenodd" clip-rule="evenodd" fill="#1975D1" d="M507.77,551.354c12.024-9.482,23.308-19.75,33.384-31.314
		c18.118-20.795,31.969-44.104,41.598-69.953c1.188-3.189-0.897-2.414-2.396-2.414c-53.696-0.016-107.393-0.014-161.088-0.014
		c-14.45,0-28.9-0.064-43.349,0.061c-2.511,0.023-3.05-0.709-3.046-3.123c0.074-47.637,0.08-95.273-0.01-142.91
		c-0.006-2.715,0.695-3.365,3.375-3.363c89.493,0.072,178.986,0.061,268.479,0.061c19.764,0,39.581-0.871,59.269,0.342
		c10.988,0.677,21.944,0.813,32.917,1.1c1.781,0.046,1.9,1.074,2.095,2.275c1.21,7.438,2.55,14.857,3.582,22.32
		c1.877,13.576,2.807,27.229,3.123,40.936c0.393,17.078-0.495,34.076-2.357,51.053c-2.352,21.43-6.615,42.461-12.688,63.127
		c-11.087,37.732-27.803,72.813-50.051,105.236c-13.965,20.352-29.717,39.205-47.772,56.078c-2.926,2.734-6.021,5.287-9.037,7.924
		c-1.847,0.961-3.306-0.043-4.566-1.121c-8.849-7.555-17.771-15.02-26.646-22.545c-8.873-7.525-17.745-15.053-26.649-22.541
		c-10.328-8.686-20.595-17.445-30.904-26.152c-8.104-6.846-16.245-13.648-24.261-20.598
		C509.429,554.657,507.188,553.891,507.77,551.354z"/>
	<path fill-rule="evenodd" clip-rule="evenodd" fill="#4CAE4F" d="M507.77,551.354c10.987,9.357,21.954,18.74,32.966,28.068
		c26.077,22.094,52.168,44.17,78.284,66.217c1.446,1.221,2.595,2.996,4.777,3.135c-0.394,0.379-0.786,0.758-1.179,1.137
		c-1.152,0.365-1.73,1.402-2.543,2.166c-0.64,0.58-1.28,1.162-1.92,1.744c-1.117,0.373-1.738,1.332-2.508,2.117
		c-0.65,0.594-1.302,1.188-1.953,1.779c-0.912,0.252-1.37,1.063-2.018,1.639c-0.453,0.396-0.905,0.795-1.357,1.191
		c-0.902,0.219-1.349,1.012-1.979,1.574c-0.271,0.221-0.543,0.439-0.815,0.66c-0.876,0.23-1.356,0.963-1.956,1.545
		c-12.137,9.844-25.002,18.654-38.253,26.916c-10.997,6.859-22.478,12.838-34.149,18.434c-16.283,7.805-33.071,14.373-50.327,19.713
		c-20.305,6.285-40.973,10.85-62.089,13.475c-21.67,2.691-43.373,3.918-65.191,2.615c-2.086-0.561-4.264,0.199-6.346-0.432
		c-12.765-0.305-25.386-2.045-37.949-4.113c-22.025-3.629-43.559-9.254-64.558-16.84c-28.017-10.121-54.442-23.42-79.306-39.846
		c-26.959-17.809-51.145-38.832-72.707-62.85c-14.334-15.967-27.17-33.104-38.496-51.336c-5.51-8.869-10.82-17.863-15.293-27.318
		c-0.166-1.563,0.586-2.555,1.799-3.496c11.386-8.844,22.85-17.584,34.254-26.402c26.344-20.363,52.742-40.656,79.133-60.957
		c1.821-1.402,3.355-3.637,6.174-3.27c2.078,3.547,3.076,7.547,4.736,11.273c29.895,67.121,80.176,110.627,151.097,129.891
		c21.195,5.756,42.946,7.613,64.942,6.564c45.508-2.168,86.469-16.941,123.09-43.941
		C506.651,552.022,507.222,551.704,507.77,551.354z"/>
	<path fill-rule="evenodd" clip-rule="evenodd" fill="#FEC007" d="M162.265,448.62c-9.478,7.375-18.93,14.781-28.438,22.117
		c-30.232,23.318-60.485,46.609-90.727,69.914c-0.802,0.619-1.744,1.1-2.195,2.092C25.278,512.463,14.256,480.561,7.444,447.2
		c-6.297-30.836-8.587-62.025-6.916-93.414c2.879-54.102,16.666-105.317,41.862-153.372c0.173-0.329,0.389-0.634,0.585-0.951
		c39.826,29.196,79.652,58.393,119.48,87.586c0.976,0.715,1.977,1.397,2.965,2.095c-6.43,16.229-11.142,32.938-13.699,50.214
		c-2.588,17.483-3.187,35.037-1.696,52.68C151.665,411.442,155.861,430.262,162.265,448.62z"/>
	<path fill-rule="evenodd" clip-rule="evenodd" fill="#6EA73B" d="M349.214,745.047c2.121,0.072,4.281-0.441,6.346,0.432
		C353.429,745.565,351.289,745.786,349.214,745.047z"/>
	<path fill-rule="evenodd" clip-rule="evenodd" fill="#9B9519" d="M620.075,652.077c0.417-1.229,1.198-2.027,2.542-2.166
		C621.933,650.823,621.113,651.577,620.075,652.077z"/>
	<path fill-rule="evenodd" clip-rule="evenodd" fill="#988F17" d="M615.647,655.938c0.364-1.264,1.188-1.984,2.507-2.117
		C617.465,654.698,616.655,655.436,615.647,655.938z"/>
	<path fill-rule="evenodd" clip-rule="evenodd" fill="#9B951A" d="M611.677,659.356c0.308-0.994,0.902-1.637,2.017-1.639
		C613.129,658.397,612.521,659.02,611.677,659.356z"/>
	<path fill-rule="evenodd" clip-rule="evenodd" fill="#9F9517" d="M608.341,662.122c0.295-0.982,0.905-1.568,1.979-1.574
		C609.839,661.297,609.157,661.795,608.341,662.122z"/>
	<path fill-rule="evenodd" clip-rule="evenodd" fill="#988D15" d="M605.569,664.327c0.264-1.006,0.905-1.535,1.956-1.545
		C607.044,663.512,606.356,663.983,605.569,664.327z"/>
</g>
</svg>
