<?xml version="1.0" encoding="UTF-8"?>
<!DOCTYPE svg PUBLIC "-//W3C//DTD SVG 1.1//EN" "http://www.w3.org/Graphics/SVG/1.1/DTD/svg11.dtd">
<!-- Creator: CorelDRAW X7 -->
<svg xmlns="http://www.w3.org/2000/svg" xml:space="preserve" width="1.59107in" height="1.58759in" version="1.1" style="shape-rendering:geometricPrecision; text-rendering:geometricPrecision; image-rendering:optimizeQuality; fill-rule:evenodd; clip-rule:evenodd"
viewBox="0 0 29 29"
 xmlns:xlink="http://www.w3.org/1999/xlink">
 <defs>
  <style type="text/css">
   <![CDATA[
    .str0 {stroke:#FF4096;stroke-width:0.127677}
    .fil1 {fill:#2E0013}
    .fil0 {fill:#FF4096}
   ]]>
  </style>
 </defs>
 <g id="Layer_x0020_1">
  <metadata id="CorelCorpID_0Corel-Layer"/>
  <path class="fil0 str0" d="M2 0l25 0c1,0 2,1 2,2l0 25c0,1 -1,2 -2,2l-25 0c-1,0 -2,-1 -2,-2l0 -25c0,-1 1,-2 2,-2z"/>
  <path class="fil1" d="M3 1l23 0c1,0 2,1 2,2l0 23c0,1 -1,2 -2,2l-23 0c-1,0 -2,-1 -2,-2l0 -23c0,-1 1,-2 2,-2z"/>
 </g>
 <g id="Layer_x0020_1_0">
  <metadata id="CorelCorpID_1Corel-Layer"/>
  <g id="_1999564960288">
   <path class="fil0" d="M19 11c-7,0 -8,8 -3,10 1,1 4,0 5,0l0 -13 -2 0 0 3zm0 8l0 0 0 -6c-1,0 -2,0 -3,1 -2,2 -1,6 3,5z"/>
   <polygon class="fil0" points="8,21 10,21 10,8 8,8 "/>
  </g>
 </g>
</svg>
