<?xml version="1.0" encoding="UTF-8"?>
<svg width="65px" height="65px" viewBox="0 0 65 65" version="1.1" xmlns="http://www.w3.org/2000/svg" xmlns:xlink="http://www.w3.org/1999/xlink">
    <!-- Generator: sketchtool 54.1 (76490) - https://sketchapp.com -->
    <title>7CA88739-856E-4DBD-8353-439C40CC8656</title>
    <desc>Created with sketchtool.</desc>
    <g id="NLR-Candidate-Report-(Web)" stroke="none" stroke-width="1" fill="none" fill-rule="evenodd">
        <g id="Factor-Icons---Candidate-Facing" transform="translate(-513.000000, -516.000000)">
            <g id="Icons/Factors/Learning-Dark-bg" transform="translate(502.000000, 505.000000)">
                <g id="Group-2" transform="translate(12.000000, 12.000000)">
                    <g id="Group" transform="translate(16.397260, 13.808219)">
                        <path d="M7.36540448,33.9172456 C7.14986316,33.0032664 6.89119285,32.0680657 6.58939355,31.1116434 C3.65631695,26.039973 0.17823109,21.2283213 0.17823109,16.8948055 C0.17823109,9.73762704 3.69790357,1.18062549 13.9233951,0.69436369 C14.0928654,0.67988325 14.265277,0.67264303 14.4406299,0.67264303 C14.5098713,0.67264303 14.5788317,0.672980975 14.647512,0.673654434 C14.7145547,0.672980977 14.7818717,0.67264303 14.849464,0.67264303 C25.7785124,0.889852643 29.5206968,9.67615894 29.5206968,17.0046878 C29.5206968,21.367557 25.9456893,26.2118009 22.9308785,31.3178246 C21.7186723,32.8374556 21.0847837,35.8552717 21.0292127,40.3712732 L8.07812572,40.3712732 C7.80181161,38.1245681 7.56423787,35.9732256 7.36540448,33.9172456 Z" id="Lightbulb" fill="#E9EFFF"></path>
                        <path d="M7.94535438,43.3918211 L20.8905599,43.3918211" id="Line-2-Copy-2" stroke="#E9EFFF" stroke-width="3"></path>
                        <path d="M7.94535438,47.7068896 L20.8905599,47.7068896" id="Line-2-Copy-3" stroke="#E9EFFF" stroke-width="3"></path>
                    </g>
                    <path d="M34.5205479,18.9863014 C37.8012421,19.642671 41.9616828,23.0106882 41.9616828,28.0946656" id="Path-5" stroke="#8AA7FA" stroke-width="2"></path>
                    <path d="M32.3630137,0 L32.3516583,9.19033886" id="Line-2" stroke="#8AA7FA" stroke-width="2" stroke-linecap="square"></path>
                    <path d="M56.6697796,9.49315068 L50.0547945,16.6773612" id="Line-2-Copy" stroke="#8AA7FA" stroke-width="2" stroke-linecap="square"></path>
                    <path d="M55.8067659,49.1917808 L49.1917808,56.3759913" id="Line-2-Copy-5" stroke="#8AA7FA" stroke-width="2" stroke-linecap="square" transform="translate(52.499273, 52.783886) scale(1, -1) translate(-52.499273, -52.783886) "></path>
                    <path d="M62.5684932,34.8006489 L51.7808219,34.8006489" id="Line-2-Copy-4" stroke="#8AA7FA" stroke-width="2" stroke-linecap="square"></path>
                    <path d="M13.5190946,9.49315068 L6.90410959,16.6773612" id="Line-2-Copy-8" stroke="#8AA7FA" stroke-width="2" stroke-linecap="square" transform="translate(10.211602, 13.085256) scale(-1, 1) translate(-10.211602, -13.085256) "></path>
                    <path d="M13.5190946,49.1917808 L6.90410959,56.3759913" id="Line-2-Copy-7" stroke="#8AA7FA" stroke-width="2" stroke-linecap="square" transform="translate(10.211602, 52.783886) scale(-1, -1) translate(-10.211602, -52.783886) "></path>
                    <path d="M10.7876712,34.8006489 L0,34.8006489" id="Line-2-Copy-6" stroke="#8AA7FA" stroke-width="2" stroke-linecap="square" transform="translate(5.609589, 34.520548) scale(-1, 1) translate(-5.609589, -34.520548) "></path>
                </g>
            </g>
        </g>
    </g>
</svg>