<?xml version="1.0" encoding="UTF-8"?>
<!DOCTYPE svg PUBLIC "-//W3C//DTD SVG 1.1//EN" "http://www.w3.org/Graphics/SVG/1.1/DTD/svg11.dtd">
<!-- Creator: CorelDRAW X7 -->
<svg xmlns="http://www.w3.org/2000/svg" xml:space="preserve" width="2.75591in" height="2.75591in" version="1.1" style="shape-rendering:geometricPrecision; text-rendering:geometricPrecision; image-rendering:optimizeQuality; fill-rule:evenodd; clip-rule:evenodd"
viewBox="0 0 137 137"
 xmlns:xlink="http://www.w3.org/1999/xlink">
 <defs>
  <style type="text/css">
   <![CDATA[
    .fil7 {fill:none}
    .fil5 {fill:#3C3B6E}
    .fil4 {fill:#B22234}
    .fil1 {fill:#B6B5C8}
    .fil3 {fill:#D07883}
    .fil2 {fill:#D68892}
    .fil6 {fill:#E7BBC1}
    .fil0 {fill:white}
   ]]>
  </style>
 </defs>
 <g id="Layer_x0020_1">
  <metadata id="CorelCorpID_0Corel-Layer"/>
  <g id="_1808320234864">
   <rect class="fil0" y="32" width="137.052" height="72.181"/>
   <g>
    <polygon class="fil1" points="137,71 137,71 55,71 0,71 0,71 "/>
    <polygon class="fil1" points="14,34 14,34 14,34 "/>
    <polygon class="fil1" points="50,34 50,34 50,34 "/>
    <polygon class="fil1" points="23,34 23,34 23,34 "/>
    <polygon class="fil1" points="32,34 32,34 32,34 "/>
    <polygon class="fil1" points="41,34 41,34 41,34 "/>
    <polygon class="fil1" points="5,34 5,34 4,34 "/>
   </g>
   <g>
    <polygon class="fil2" points="137,82 137,82 0,82 0,82 "/>
    <polygon class="fil2" points="137,55 137,55 55,55 55,55 "/>
   </g>
   <g>
    <polygon class="fil3" points="137,99 137,99 0,99 0,99 "/>
    <polygon class="fil3" points="137,38 137,38 55,38 55,38 "/>
   </g>
   <g>
    <polygon class="fil4" points="0,94 137,94 137,88 0,88 "/>
    <polygon class="fil4" points="0,82 137,82 137,77 0,77 "/>
    <polygon class="fil4" points="0,105 137,105 137,99 0,99 "/>
    <polygon class="fil4" points="55,49 137,49 137,44 55,44 "/>
    <polygon class="fil4" points="55,60 137,60 137,55 55,55 "/>
    <polygon class="fil4" points="55,71 137,71 137,66 55,66 "/>
    <polygon class="fil4" points="55,38 137,38 137,32 55,32 "/>
   </g>
   <polygon class="fil5" points="0,71 55,71 55,66 55,66 55,60 55,55 55,55 55,49 55,44 55,38 55,38 55,32 0,32 "/>
   <polygon class="fil6" points="137,66 137,66 55,66 55,66 "/>
   <g>
    <polygon class="fil0" points="5,34 5,36 7,36 5,37 6,38 5,37 3,38 4,37 3,36 4,36 "/>
    <g>
     <path class="fil0" d="M14 34c0,1 0,1 0,2 1,0 1,0 2,0 -1,0 -1,0 -2,1 1,0 1,1 1,1 0,0 -1,0 -1,-1 -1,1 -1,1 -2,1 1,0 1,-1 1,-1 0,-1 -1,-1 -1,-1 0,0 1,0 1,0 0,-1 1,-1 1,-2z"/>
     <path class="fil0" d="M23 34c0,1 0,1 0,2 1,0 1,0 2,0 -1,0 -1,0 -1,1 0,0 0,1 0,1 0,0 -1,0 -1,-1 -1,1 -1,1 -1,1 0,0 0,-1 0,-1 0,-1 -1,-1 -1,-1 0,0 1,0 1,0 1,-1 1,-1 1,-2z"/>
     <path class="fil0" d="M32 34c0,1 0,1 0,2 1,0 1,0 2,0 0,0 -1,0 -1,1 0,0 0,1 0,1 0,0 -1,0 -1,-1 0,1 -1,1 -1,1 0,0 0,-1 0,-1 0,-1 -1,-1 -1,-1 0,0 1,0 2,0 0,-1 0,-1 0,-2z"/>
     <path class="fil0" d="M41 34c0,1 0,1 1,2 0,0 1,0 1,0 0,0 -1,0 -1,1 0,0 0,1 0,1 0,0 0,0 -1,-1 0,1 -1,1 -1,1 0,0 0,-1 0,-1 0,-1 0,-1 -1,-1 1,0 1,0 2,0 0,-1 0,-1 0,-2z"/>
    </g>
    <polygon class="fil0" points="50,34 51,36 52,36 51,37 51,38 50,37 49,38 49,37 48,36 50,36 "/>
    <path class="fil0" d="M5 42c0,1 0,1 0,2 1,0 1,0 2,0 -1,0 -1,0 -2,1 0,0 1,1 1,1 -1,0 -1,-1 -1,-1 -1,0 -1,1 -2,1 0,0 1,-1 1,-1 -1,-1 -1,-1 -1,-1 0,0 1,0 1,0 0,-1 0,-1 1,-2z"/>
    <path class="fil0" d="M14 42c0,1 0,1 0,2 1,0 1,0 2,0 -1,0 -1,0 -2,1 1,0 1,1 1,1 0,0 -1,-1 -1,-1 -1,0 -1,1 -2,1 1,0 1,-1 1,-1 0,-1 -1,-1 -1,-1 0,0 1,0 1,0 0,-1 1,-1 1,-2z"/>
    <path class="fil0" d="M23 42c0,1 0,1 0,2 1,0 1,0 2,0 -1,0 -1,0 -1,1 0,0 0,1 0,1 0,0 -1,-1 -1,-1 -1,0 -1,1 -1,1 0,0 0,-1 0,-1 0,-1 -1,-1 -1,-1 0,0 1,0 1,0 1,-1 1,-1 1,-2z"/>
    <path class="fil0" d="M32 42c0,1 0,1 0,2 1,0 1,0 2,0 0,0 -1,0 -1,1 0,0 0,1 0,1 0,0 -1,-1 -1,-1 0,0 -1,1 -1,1 0,0 0,-1 0,-1 0,-1 -1,-1 -1,-1 0,0 1,0 2,0 0,-1 0,-1 0,-2z"/>
    <path class="fil0" d="M41 42c0,1 0,1 1,2 0,0 1,0 1,0 0,0 -1,0 -1,1 0,0 0,1 0,1 0,0 0,-1 -1,-1 0,0 -1,1 -1,1 0,0 0,-1 0,-1 0,-1 0,-1 -1,-1 1,0 1,0 2,0 0,-1 0,-1 0,-2z"/>
    <path class="fil0" d="M50 42c0,1 1,1 1,2 0,0 1,0 1,0 0,0 -1,0 -1,1 0,0 0,1 0,1 0,0 0,-1 -1,-1 0,0 -1,1 -1,1 0,0 0,-1 0,-1 0,-1 0,-1 -1,-1 1,0 1,0 2,0 0,-1 0,-1 0,-2z"/>
    <path class="fil0" d="M5 50c0,0 0,1 0,1 1,0 1,0 2,0 -1,1 -1,1 -2,1 0,1 1,1 1,2 -1,-1 -1,-1 -1,-1 -1,0 -1,0 -2,1 0,-1 1,-1 1,-2 -1,0 -1,0 -1,-1 0,0 1,0 1,0 0,0 0,-1 1,-1z"/>
    <path class="fil0" d="M14 50c0,0 0,1 0,1 1,0 1,0 2,0 -1,1 -1,1 -2,1 1,1 1,1 1,2 0,-1 -1,-1 -1,-1 -1,0 -1,0 -2,1 1,-1 1,-1 1,-2 0,0 -1,0 -1,-1 0,0 1,0 1,0 0,0 1,-1 1,-1z"/>
    <path class="fil0" d="M23 50c0,0 0,1 0,1 1,0 1,0 2,0 -1,1 -1,1 -1,1 0,1 0,1 0,2 0,-1 -1,-1 -1,-1 -1,0 -1,0 -1,1 0,-1 0,-1 0,-2 0,0 -1,0 -1,-1 0,0 1,0 1,0 1,0 1,-1 1,-1z"/>
    <path class="fil0" d="M32 50c0,0 0,1 0,1 1,0 1,0 2,0 0,1 -1,1 -1,1 0,1 0,1 0,2 0,-1 -1,-1 -1,-1 0,0 -1,0 -1,1 0,-1 0,-1 0,-2 0,0 -1,0 -1,-1 0,0 1,0 2,0 0,0 0,-1 0,-1z"/>
    <path class="fil0" d="M41 50c0,0 0,1 1,1 0,0 1,0 1,0 0,1 -1,1 -1,1 0,1 0,1 0,2 0,-1 0,-1 -1,-1 0,0 -1,0 -1,1 0,-1 0,-1 0,-2 0,0 0,0 -1,-1 1,0 1,0 2,0 0,0 0,-1 0,-1z"/>
    <path class="fil0" d="M50 50c0,0 1,1 1,1 0,0 1,0 1,0 0,1 -1,1 -1,1 0,1 0,1 0,2 0,-1 0,-1 -1,-1 0,0 -1,0 -1,1 0,-1 0,-1 0,-2 0,0 0,0 -1,-1 1,0 1,0 2,0 0,0 0,-1 0,-1z"/>
    <path class="fil0" d="M5 58c0,0 0,1 0,1 1,0 1,0 2,0 -1,0 -1,1 -2,1 0,1 1,1 1,2 -1,-1 -1,-1 -1,-1 -1,0 -1,0 -2,1 0,-1 1,-1 1,-2 -1,0 -1,-1 -1,-1 0,0 1,0 1,0 0,0 0,-1 1,-1z"/>
    <path class="fil0" d="M14 58c0,0 0,1 0,1 1,0 1,0 2,0 -1,0 -1,1 -2,1 1,1 1,1 1,2 0,-1 -1,-1 -1,-1 -1,0 -1,0 -2,1 1,-1 1,-1 1,-2 0,0 -1,-1 -1,-1 0,0 1,0 1,0 0,0 1,-1 1,-1z"/>
    <path class="fil0" d="M23 58c0,0 0,1 0,1 1,0 1,0 2,0 -1,0 -1,1 -1,1 0,1 0,1 0,2 0,-1 -1,-1 -1,-1 -1,0 -1,0 -1,1 0,-1 0,-1 0,-2 0,0 -1,-1 -1,-1 0,0 1,0 1,0 1,0 1,-1 1,-1z"/>
    <path class="fil0" d="M32 58c0,0 0,1 0,1 1,0 1,0 2,0 0,0 -1,1 -1,1 0,1 0,1 0,2 0,-1 -1,-1 -1,-1 0,0 -1,0 -1,1 0,-1 0,-1 0,-2 0,0 -1,-1 -1,-1 0,0 1,0 2,0 0,0 0,-1 0,-1z"/>
    <path class="fil0" d="M41 58c0,0 0,1 1,1 0,0 1,0 1,0 0,0 -1,1 -1,1 0,1 0,1 0,2 0,-1 0,-1 -1,-1 0,0 -1,0 -1,1 0,-1 0,-1 0,-2 0,0 0,-1 -1,-1 1,0 1,0 2,0 0,0 0,-1 0,-1z"/>
    <path class="fil0" d="M50 58c0,0 1,1 1,1 0,0 1,0 1,0 0,0 -1,1 -1,1 0,1 0,1 0,2 0,-1 0,-1 -1,-1 0,0 -1,0 -1,1 0,-1 0,-1 0,-2 0,0 0,-1 -1,-1 1,0 1,0 2,0 0,0 0,-1 0,-1z"/>
    <polygon class="fil0" points="5,66 5,67 7,67 5,68 6,69 5,68 3,69 4,68 3,67 4,67 "/>
    <g>
     <path class="fil0" d="M14 66c0,0 0,0 0,1 1,0 1,0 2,0 -1,0 -1,1 -2,1 1,0 1,1 1,1 0,0 -1,0 -1,-1 -1,1 -1,1 -2,1 1,0 1,-1 1,-1 0,0 -1,-1 -1,-1 0,0 1,0 1,0 0,-1 1,-1 1,-1z"/>
     <path class="fil0" d="M23 66c0,0 0,0 0,1 1,0 1,0 2,0 -1,0 -1,1 -1,1 0,0 0,1 0,1 0,0 -1,0 -1,-1 -1,1 -1,1 -1,1 0,0 0,-1 0,-1 0,0 -1,-1 -1,-1 0,0 1,0 1,0 1,-1 1,-1 1,-1z"/>
     <path class="fil0" d="M32 66c0,0 0,0 0,1 1,0 1,0 2,0 0,0 -1,1 -1,1 0,0 0,1 0,1 0,0 -1,0 -1,-1 0,1 -1,1 -1,1 0,0 0,-1 0,-1 0,0 -1,-1 -1,-1 0,0 1,0 2,0 0,-1 0,-1 0,-1z"/>
     <path class="fil0" d="M41 66c0,0 0,0 1,1 0,0 1,0 1,0 0,0 -1,1 -1,1 0,0 0,1 0,1 0,0 0,0 -1,-1 0,1 -1,1 -1,1 0,0 0,-1 0,-1 0,0 0,-1 -1,-1 1,0 1,0 2,0 0,-1 0,-1 0,-1z"/>
    </g>
    <polygon class="fil0" points="50,66 51,67 52,67 51,68 51,69 50,68 49,69 49,68 48,67 50,67 "/>
    <polygon class="fil0" points="9,38 10,40 11,40 10,41 10,42 9,41 8,42 8,41 7,40 9,40 "/>
    <g>
     <path class="fil0" d="M18 38c0,1 1,1 1,2 0,0 1,0 1,0 0,0 -1,0 -1,1 0,0 0,1 1,1 -1,0 -1,0 -2,-1 0,1 -1,1 -1,1 0,0 0,-1 1,-1 -1,-1 -1,-1 -2,-1 1,0 1,0 2,0 0,-1 0,-1 0,-2z"/>
     <path class="fil0" d="M27 38c1,1 1,1 1,2 0,0 1,0 1,0 0,0 0,0 -1,1 0,0 0,1 1,1 -1,0 -1,0 -2,-1 0,1 0,1 -1,1 0,0 0,-1 1,-1 -1,-1 -1,-1 -2,-1 1,0 1,0 2,0 0,-1 0,-1 0,-2z"/>
     <path class="fil0" d="M37 38c0,1 0,1 0,2 1,0 1,0 2,0 -1,0 -1,0 -2,1 0,0 1,1 1,1 -1,0 -1,0 -1,-1 -1,1 -1,1 -2,1 0,0 1,-1 1,-1 -1,-1 -1,-1 -1,-1 0,0 1,0 1,0 0,-1 0,-1 1,-2z"/>
     <path class="fil0" d="M46 38c0,1 0,1 0,2 1,0 1,0 2,0 -1,0 -1,0 -2,1 1,0 1,1 1,1 0,0 -1,0 -1,-1 -1,1 -1,1 -2,1 1,0 1,-1 1,-1 0,-1 -1,-1 -1,-1 0,0 1,0 1,0 0,-1 1,-1 1,-2z"/>
    </g>
    <polygon class="fil0" points="9,46 10,48 11,48 10,48 10,50 9,49 8,50 8,48 7,48 9,48 "/>
    <g>
     <path class="fil0" d="M18 46c0,1 1,1 1,2 0,0 1,0 1,0 0,0 -1,0 -1,0 0,1 0,1 1,2 -1,0 -1,-1 -2,-1 0,0 -1,1 -1,1 0,-1 0,-1 1,-2 -1,0 -1,0 -2,0 1,0 1,0 2,0 0,-1 0,-1 0,-2z"/>
     <path class="fil0" d="M27 46c1,1 1,1 1,2 0,0 1,0 1,0 0,0 0,0 -1,0 0,1 0,1 1,2 -1,0 -1,-1 -2,-1 0,0 0,1 -1,1 0,-1 0,-1 1,-2 -1,0 -1,0 -2,0 1,0 1,0 2,0 0,-1 0,-1 0,-2z"/>
     <path class="fil0" d="M37 46c0,1 0,1 0,2 1,0 1,0 2,0 -1,0 -1,0 -2,0 0,1 1,1 1,2 -1,0 -1,-1 -1,-1 -1,0 -1,1 -2,1 0,-1 1,-1 1,-2 -1,0 -1,0 -1,0 0,0 1,0 1,0 0,-1 0,-1 1,-2z"/>
     <path class="fil0" d="M46 46c0,1 0,1 0,2 1,0 1,0 2,0 -1,0 -1,0 -2,0 1,1 1,1 1,2 0,0 -1,-1 -1,-1 -1,0 -1,1 -2,1 1,-1 1,-1 1,-2 0,0 -1,0 -1,0 0,0 1,0 1,0 0,-1 1,-1 1,-2z"/>
    </g>
    <polygon class="fil0" points="9,54 10,55 11,55 10,56 10,58 9,57 8,58 8,56 7,55 9,55 "/>
    <g>
     <path class="fil0" d="M18 54c0,0 1,1 1,1 0,0 1,0 1,0 0,1 -1,1 -1,1 0,1 0,1 1,2 -1,-1 -1,-1 -2,-1 0,0 -1,0 -1,1 0,-1 0,-1 1,-2 -1,0 -1,0 -2,-1 1,0 1,0 2,0 0,0 0,-1 0,-1z"/>
     <path class="fil0" d="M27 54c1,0 1,1 1,1 0,0 1,0 1,0 0,1 0,1 -1,1 0,1 0,1 1,2 -1,-1 -1,-1 -2,-1 0,0 0,0 -1,1 0,-1 0,-1 1,-2 -1,0 -1,0 -2,-1 1,0 1,0 2,0 0,0 0,-1 0,-1z"/>
     <path class="fil0" d="M37 54c0,0 0,1 0,1 1,0 1,0 2,0 -1,1 -1,1 -2,1 0,1 1,1 1,2 -1,-1 -1,-1 -1,-1 -1,0 -1,0 -2,1 0,-1 1,-1 1,-2 -1,0 -1,0 -1,-1 0,0 1,0 1,0 0,0 0,-1 1,-1z"/>
     <path class="fil0" d="M46 54c0,0 0,1 0,1 1,0 1,0 2,0 -1,1 -1,1 -2,1 1,1 1,1 1,2 0,-1 -1,-1 -1,-1 -1,0 -1,0 -2,1 1,-1 1,-1 1,-2 0,0 -1,0 -1,-1 0,0 1,0 1,0 0,0 1,-1 1,-1z"/>
    </g>
    <polygon class="fil0" points="9,62 10,63 11,63 10,64 10,65 9,65 8,65 8,64 7,63 9,63 "/>
    <g>
     <path class="fil0" d="M18 62c0,0 1,1 1,1 0,0 1,0 1,0 0,0 -1,1 -1,1 0,0 0,1 1,1 -1,0 -1,0 -2,0 0,0 -1,0 -1,0 0,0 0,-1 1,-1 -1,0 -1,-1 -2,-1 1,0 1,0 2,0 0,0 0,-1 0,-1z"/>
     <path class="fil0" d="M27 62c1,0 1,1 1,1 0,0 1,0 1,0 0,0 0,1 -1,1 0,0 0,1 1,1 -1,0 -1,0 -2,0 0,0 0,0 -1,0 0,0 0,-1 1,-1 -1,0 -1,-1 -2,-1 1,0 1,0 2,0 0,0 0,-1 0,-1z"/>
     <path class="fil0" d="M37 62c0,0 0,1 0,1 1,0 1,0 2,0 -1,0 -1,1 -2,1 0,0 1,1 1,1 -1,0 -1,0 -1,0 -1,0 -1,0 -2,0 0,0 1,-1 1,-1 -1,0 -1,-1 -1,-1 0,0 1,0 1,0 0,0 0,-1 1,-1z"/>
     <path class="fil0" d="M46 62c0,0 0,1 0,1 1,0 1,0 2,0 -1,0 -1,1 -2,1 1,0 1,1 1,1 0,0 -1,0 -1,0 -1,0 -1,0 -2,0 1,0 1,-1 1,-1 0,0 -1,-1 -1,-1 0,0 1,0 1,0 0,0 1,-1 1,-1z"/>
    </g>
   </g>
  </g>
  <rect class="fil7" width="137" height="137"/>
 </g>
</svg>
